solid ASCII
  facet normal 0.000000e+00 0.000000e+00 -1.000000e+00
    outer loop
      vertex   1.127985e+01 7.157065e+00 2.550000e+00
      vertex   1.132500e+01 7.500000e+00 2.550000e+00
      vertex   3.544126e+01 4.706307e+00 2.550000e+00
    endloop
  endfacet
  facet normal 0.000000e+00 0.000000e+00 -1.000000e+00
    outer loop
      vertex   3.544126e+01 4.706307e+00 2.550000e+00
      vertex   1.132500e+01 7.500000e+00 2.550000e+00
      vertex   1.127985e+01 7.842935e+00 2.550000e+00
    endloop
  endfacet
  facet normal 0.000000e+00 0.000000e+00 -1.000000e+00
    outer loop
      vertex   3.544126e+01 4.706307e+00 2.550000e+00
      vertex   1.127985e+01 7.842935e+00 2.550000e+00
      vertex   1.114748e+01 8.162500e+00 2.550000e+00
    endloop
  endfacet
  facet normal 0.000000e+00 0.000000e+00 -1.000000e+00
    outer loop
      vertex   1.114748e+01 8.162500e+00 2.550000e+00
      vertex   1.093692e+01 8.436916e+00 2.550000e+00
      vertex   3.544126e+01 4.706307e+00 2.550000e+00
    endloop
  endfacet
  facet normal 0.000000e+00 0.000000e+00 -1.000000e+00
    outer loop
      vertex   3.544126e+01 4.706307e+00 2.550000e+00
      vertex   1.093692e+01 8.436916e+00 2.550000e+00
      vertex   1.044126e+01 9.706307e+00 2.550000e+00
    endloop
  endfacet
  facet normal 0.000000e+00 0.000000e+00 -1.000000e+00
    outer loop
      vertex   1.044126e+01 9.706307e+00 2.550000e+00
      vertex   1.093692e+01 8.436916e+00 2.550000e+00
      vertex   1.066250e+01 8.647484e+00 2.550000e+00
    endloop
  endfacet
  facet normal 0.000000e+00 -0.000000e+00 -1.000000e+00
    outer loop
      vertex   1.044126e+01 9.706307e+00 2.550000e+00
      vertex   1.066250e+01 8.647484e+00 2.550000e+00
      vertex   1.034294e+01 8.779852e+00 2.550000e+00
    endloop
  endfacet
  facet normal 0.000000e+00 0.000000e+00 -1.000000e+00
    outer loop
      vertex   1.034294e+01 8.779852e+00 2.550000e+00
      vertex   1.000000e+01 8.825000e+00 2.550000e+00
      vertex   1.044126e+01 9.706307e+00 2.550000e+00
    endloop
  endfacet
  facet normal 0.000000e+00 0.000000e+00 -1.000000e+00
    outer loop
      vertex   1.044126e+01 9.706307e+00 2.550000e+00
      vertex   1.000000e+01 8.825000e+00 2.550000e+00
      vertex   9.141138e+00 9.579628e+00 2.550000e+00
    endloop
  endfacet
  facet normal -0.000000e+00 0.000000e+00 -1.000000e+00
    outer loop
      vertex   1.044126e+01 9.706307e+00 2.550000e+00
      vertex   9.141138e+00 9.579628e+00 2.550000e+00
      vertex   9.563356e+00 9.707225e+00 2.550000e+00
    endloop
  endfacet
  facet normal 0.000000e+00 0.000000e+00 -1.000000e+00
    outer loop
      vertex   9.657065e+00 8.779852e+00 2.550000e+00
      vertex   8.410675e+00 9.092654e+00 2.550000e+00
      vertex   1.000000e+01 8.825000e+00 2.550000e+00
    endloop
  endfacet
  facet normal 0.000000e+00 0.000000e+00 -1.000000e+00
    outer loop
      vertex   1.000000e+01 8.825000e+00 2.550000e+00
      vertex   8.410675e+00 9.092654e+00 2.550000e+00
      vertex   8.751925e+00 9.372113e+00 2.550000e+00
    endloop
  endfacet
  facet normal 0.000000e+00 0.000000e+00 -1.000000e+00
    outer loop
      vertex   1.000000e+01 8.825000e+00 2.550000e+00
      vertex   8.751925e+00 9.372113e+00 2.550000e+00
      vertex   9.141138e+00 9.579628e+00 2.550000e+00
    endloop
  endfacet
  facet normal -0.000000e+00 0.000000e+00 -1.000000e+00
    outer loop
      vertex   9.657065e+00 8.779852e+00 2.550000e+00
      vertex   9.337501e+00 8.647484e+00 2.550000e+00
      vertex   8.410675e+00 9.092654e+00 2.550000e+00
    endloop
  endfacet
  facet normal 0.000000e+00 -0.000000e+00 -1.000000e+00
    outer loop
      vertex   8.410675e+00 9.092654e+00 2.550000e+00
      vertex   9.337501e+00 8.647484e+00 2.550000e+00
      vertex   8.130503e+00 8.751989e+00 2.550000e+00
    endloop
  endfacet
  facet normal 0.000000e+00 0.000000e+00 -1.000000e+00
    outer loop
      vertex   8.130503e+00 8.751989e+00 2.550000e+00
      vertex   9.337501e+00 8.647484e+00 2.550000e+00
      vertex   9.063084e+00 8.436916e+00 2.550000e+00
    endloop
  endfacet
  facet normal 0.000000e+00 -0.000000e+00 -1.000000e+00
    outer loop
      vertex   8.130503e+00 8.751989e+00 2.550000e+00
      vertex   9.063084e+00 8.436916e+00 2.550000e+00
      vertex   7.922173e+00 8.363212e+00 2.550000e+00
    endloop
  endfacet
  facet normal 0.000000e+00 0.000000e+00 -1.000000e+00
    outer loop
      vertex   7.922173e+00 8.363212e+00 2.550000e+00
      vertex   9.063084e+00 8.436916e+00 2.550000e+00
      vertex   8.852517e+00 8.162500e+00 2.550000e+00
    endloop
  endfacet
  facet normal 0.000000e+00 -0.000000e+00 -1.000000e+00
    outer loop
      vertex   7.922173e+00 8.363212e+00 2.550000e+00
      vertex   8.852517e+00 8.162500e+00 2.550000e+00
      vertex   7.793694e+00 7.941261e+00 2.550000e+00
    endloop
  endfacet
  facet normal 0.000000e+00 0.000000e+00 -1.000000e+00
    outer loop
      vertex   7.793694e+00 7.941261e+00 2.550000e+00
      vertex   8.852517e+00 8.162500e+00 2.550000e+00
      vertex   8.720149e+00 7.842935e+00 2.550000e+00
    endloop
  endfacet
  facet normal 0.000000e+00 -0.000000e+00 -1.000000e+00
    outer loop
      vertex   7.793694e+00 7.941261e+00 2.550000e+00
      vertex   8.720149e+00 7.842935e+00 2.550000e+00
      vertex   7.750002e+00 7.502354e+00 2.550000e+00
    endloop
  endfacet
  facet normal 0.000000e+00 0.000000e+00 -1.000000e+00
    outer loop
      vertex   7.750002e+00 7.502354e+00 2.550000e+00
      vertex   8.720149e+00 7.842935e+00 2.550000e+00
      vertex   8.675001e+00 7.500000e+00 2.550000e+00
    endloop
  endfacet
  facet normal 0.000000e+00 0.000000e+00 -1.000000e+00
    outer loop
      vertex   7.750002e+00 7.502354e+00 2.550000e+00
      vertex   8.675001e+00 7.500000e+00 2.550000e+00
      vertex   8.720149e+00 7.157065e+00 2.550000e+00
    endloop
  endfacet
  facet normal 0.000000e+00 0.000000e+00 -1.000000e+00
    outer loop
      vertex   7.750002e+00 7.502354e+00 2.550000e+00
      vertex   8.720149e+00 7.157065e+00 2.550000e+00
      vertex   7.792776e+00 7.063355e+00 2.550000e+00
    endloop
  endfacet
  facet normal 0.000000e+00 0.000000e+00 -1.000000e+00
    outer loop
      vertex   7.792776e+00 7.063355e+00 2.550000e+00
      vertex   8.720149e+00 7.157065e+00 2.550000e+00
      vertex   8.852517e+00 6.837500e+00 2.550000e+00
    endloop
  endfacet
  facet normal 0.000000e+00 0.000000e+00 -1.000000e+00
    outer loop
      vertex   7.792776e+00 7.063355e+00 2.550000e+00
      vertex   8.852517e+00 6.837500e+00 2.550000e+00
      vertex   7.920372e+00 6.641137e+00 2.550000e+00
    endloop
  endfacet
  facet normal 0.000000e+00 0.000000e+00 -1.000000e+00
    outer loop
      vertex   7.920372e+00 6.641137e+00 2.550000e+00
      vertex   8.852517e+00 6.837500e+00 2.550000e+00
      vertex   9.063084e+00 6.563084e+00 2.550000e+00
    endloop
  endfacet
  facet normal 0.000000e+00 0.000000e+00 -1.000000e+00
    outer loop
      vertex   7.920372e+00 6.641137e+00 2.550000e+00
      vertex   9.063084e+00 6.563084e+00 2.550000e+00
      vertex   8.127887e+00 6.251925e+00 2.550000e+00
    endloop
  endfacet
  facet normal 0.000000e+00 0.000000e+00 -1.000000e+00
    outer loop
      vertex   8.127887e+00 6.251925e+00 2.550000e+00
      vertex   9.063084e+00 6.563084e+00 2.550000e+00
      vertex   9.337501e+00 6.352516e+00 2.550000e+00
    endloop
  endfacet
  facet normal 0.000000e+00 0.000000e+00 -1.000000e+00
    outer loop
      vertex   8.127887e+00 6.251925e+00 2.550000e+00
      vertex   9.337501e+00 6.352516e+00 2.550000e+00
      vertex   8.407347e+00 5.910675e+00 2.550000e+00
    endloop
  endfacet
  facet normal 0.000000e+00 0.000000e+00 -1.000000e+00
    outer loop
      vertex   8.407347e+00 5.910675e+00 2.550000e+00
      vertex   9.337501e+00 6.352516e+00 2.550000e+00
      vertex   9.657065e+00 6.220148e+00 2.550000e+00
    endloop
  endfacet
  facet normal 0.000000e+00 0.000000e+00 -1.000000e+00
    outer loop
      vertex   8.407347e+00 5.910675e+00 2.550000e+00
      vertex   9.657065e+00 6.220148e+00 2.550000e+00
      vertex   1.000000e+01 6.175000e+00 2.550000e+00
    endloop
  endfacet
  facet normal 0.000000e+00 0.000000e+00 -1.000000e+00
    outer loop
      vertex   1.034294e+01 6.220148e+00 2.550000e+00
      vertex   9.558739e+00 5.293693e+00 2.550000e+00
      vertex   1.000000e+01 6.175000e+00 2.550000e+00
    endloop
  endfacet
  facet normal 0.000000e+00 0.000000e+00 -1.000000e+00
    outer loop
      vertex   1.000000e+01 6.175000e+00 2.550000e+00
      vertex   9.558739e+00 5.293693e+00 2.550000e+00
      vertex   9.136789e+00 5.422173e+00 2.550000e+00
    endloop
  endfacet
  facet normal 0.000000e+00 0.000000e+00 -1.000000e+00
    outer loop
      vertex   1.000000e+01 6.175000e+00 2.550000e+00
      vertex   9.136789e+00 5.422173e+00 2.550000e+00
      vertex   8.748011e+00 5.630502e+00 2.550000e+00
    endloop
  endfacet
  facet normal 0.000000e+00 -0.000000e+00 -1.000000e+00
    outer loop
      vertex   1.034294e+01 6.220148e+00 2.550000e+00
      vertex   1.066250e+01 6.352516e+00 2.550000e+00
      vertex   9.558739e+00 5.293693e+00 2.550000e+00
    endloop
  endfacet
  facet normal 0.000000e+00 0.000000e+00 -1.000000e+00
    outer loop
      vertex   9.558739e+00 5.293693e+00 2.550000e+00
      vertex   1.066250e+01 6.352516e+00 2.550000e+00
      vertex   3.406308e+01 3.436916e+00 2.550000e+00
    endloop
  endfacet
  facet normal 0.000000e+00 0.000000e+00 -1.000000e+00
    outer loop
      vertex   9.558739e+00 5.293693e+00 2.550000e+00
      vertex   3.406308e+01 3.436916e+00 2.550000e+00
      vertex   3.385252e+01 3.162500e+00 2.550000e+00
    endloop
  endfacet
  facet normal 0.000000e+00 0.000000e+00 -1.000000e+00
    outer loop
      vertex   1.066250e+01 6.352516e+00 2.550000e+00
      vertex   1.093692e+01 6.563084e+00 2.550000e+00
      vertex   3.406308e+01 3.436916e+00 2.550000e+00
    endloop
  endfacet
  facet normal 0.000000e+00 0.000000e+00 -1.000000e+00
    outer loop
      vertex   3.406308e+01 3.436916e+00 2.550000e+00
      vertex   1.093692e+01 6.563084e+00 2.550000e+00
      vertex   3.433750e+01 3.647484e+00 2.550000e+00
    endloop
  endfacet
  facet normal 0.000000e+00 0.000000e+00 -1.000000e+00
    outer loop
      vertex   3.433750e+01 3.647484e+00 2.550000e+00
      vertex   1.093692e+01 6.563084e+00 2.550000e+00
      vertex   3.544126e+01 4.706307e+00 2.550000e+00
    endloop
  endfacet
  facet normal 0.000000e+00 0.000000e+00 -1.000000e+00
    outer loop
      vertex   3.433750e+01 3.647484e+00 2.550000e+00
      vertex   3.544126e+01 4.706307e+00 2.550000e+00
      vertex   3.465707e+01 3.779852e+00 2.550000e+00
    endloop
  endfacet
  facet normal 0.000000e+00 0.000000e+00 -1.000000e+00
    outer loop
      vertex   3.465707e+01 3.779852e+00 2.550000e+00
      vertex   3.544126e+01 4.706307e+00 2.550000e+00
      vertex   3.500000e+01 3.825000e+00 2.550000e+00
    endloop
  endfacet
  facet normal 0.000000e+00 0.000000e+00 -1.000000e+00
    outer loop
      vertex   3.500000e+01 3.825000e+00 2.550000e+00
      vertex   3.544126e+01 4.706307e+00 2.550000e+00
      vertex   3.586321e+01 4.577827e+00 2.550000e+00
    endloop
  endfacet
  facet normal 0.000000e+00 0.000000e+00 -1.000000e+00
    outer loop
      vertex   3.500000e+01 3.825000e+00 2.550000e+00
      vertex   3.586321e+01 4.577827e+00 2.550000e+00
      vertex   3.625199e+01 4.369498e+00 2.550000e+00
    endloop
  endfacet
  facet normal 0.000000e+00 0.000000e+00 -1.000000e+00
    outer loop
      vertex   1.093692e+01 6.563084e+00 2.550000e+00
      vertex   1.114748e+01 6.837500e+00 2.550000e+00
      vertex   3.544126e+01 4.706307e+00 2.550000e+00
    endloop
  endfacet
  facet normal 0.000000e+00 0.000000e+00 -1.000000e+00
    outer loop
      vertex   3.544126e+01 4.706307e+00 2.550000e+00
      vertex   1.114748e+01 6.837500e+00 2.550000e+00
      vertex   1.127985e+01 7.157065e+00 2.550000e+00
    endloop
  endfacet
  facet normal -0.000000e+00 0.000000e+00 -1.000000e+00
    outer loop
      vertex   3.372015e+01 2.842935e+00 2.550000e+00
      vertex   3.367500e+01 2.500000e+00 2.550000e+00
      vertex   9.558739e+00 5.293693e+00 2.550000e+00
    endloop
  endfacet
  facet normal 0.000000e+00 0.000000e+00 -1.000000e+00
    outer loop
      vertex   9.558739e+00 5.293693e+00 2.550000e+00
      vertex   3.367500e+01 2.500000e+00 2.550000e+00
      vertex   3.372015e+01 2.157065e+00 2.550000e+00
    endloop
  endfacet
  facet normal 0.000000e+00 0.000000e+00 -1.000000e+00
    outer loop
      vertex   9.558739e+00 5.293693e+00 2.550000e+00
      vertex   3.372015e+01 2.157065e+00 2.550000e+00
      vertex   3.385252e+01 1.837500e+00 2.550000e+00
    endloop
  endfacet
  facet normal -0.000000e+00 -0.000000e+00 -1.000000e+00
    outer loop
      vertex   3.385252e+01 1.837500e+00 2.550000e+00
      vertex   3.406308e+01 1.563084e+00 2.550000e+00
      vertex   9.558739e+00 5.293693e+00 2.550000e+00
    endloop
  endfacet
  facet normal 0.000000e+00 0.000000e+00 -1.000000e+00
    outer loop
      vertex   9.558739e+00 5.293693e+00 2.550000e+00
      vertex   3.406308e+01 1.563084e+00 2.550000e+00
      vertex   3.455874e+01 2.936935e-01 2.550000e+00
    endloop
  endfacet
  facet normal 0.000000e+00 0.000000e+00 -1.000000e+00
    outer loop
      vertex   3.455874e+01 2.936935e-01 2.550000e+00
      vertex   3.406308e+01 1.563084e+00 2.550000e+00
      vertex   3.433750e+01 1.352516e+00 2.550000e+00
    endloop
  endfacet
  facet normal 0.000000e+00 0.000000e+00 -1.000000e+00
    outer loop
      vertex   3.455874e+01 2.936935e-01 2.550000e+00
      vertex   3.433750e+01 1.352516e+00 2.550000e+00
      vertex   3.465707e+01 1.220148e+00 2.550000e+00
    endloop
  endfacet
  facet normal 0.000000e+00 -0.000000e+00 -1.000000e+00
    outer loop
      vertex   3.465707e+01 1.220148e+00 2.550000e+00
      vertex   3.500000e+01 1.175000e+00 2.550000e+00
      vertex   3.455874e+01 2.936935e-01 2.550000e+00
    endloop
  endfacet
  facet normal 0.000000e+00 0.000000e+00 -1.000000e+00
    outer loop
      vertex   3.455874e+01 2.936935e-01 2.550000e+00
      vertex   3.500000e+01 1.175000e+00 2.550000e+00
      vertex   3.585886e+01 4.203715e-01 2.550000e+00
    endloop
  endfacet
  facet normal 0.000000e+00 0.000000e+00 -1.000000e+00
    outer loop
      vertex   3.455874e+01 2.936935e-01 2.550000e+00
      vertex   3.585886e+01 4.203715e-01 2.550000e+00
      vertex   3.543665e+01 2.927752e-01 2.550000e+00
    endloop
  endfacet
  facet normal 0.000000e+00 -0.000000e+00 -1.000000e+00
    outer loop
      vertex   3.534294e+01 1.220148e+00 2.550000e+00
      vertex   3.658933e+01 9.073464e-01 2.550000e+00
      vertex   3.500000e+01 1.175000e+00 2.550000e+00
    endloop
  endfacet
  facet normal 0.000000e+00 0.000000e+00 -1.000000e+00
    outer loop
      vertex   3.500000e+01 1.175000e+00 2.550000e+00
      vertex   3.658933e+01 9.073464e-01 2.550000e+00
      vertex   3.624808e+01 6.278868e-01 2.550000e+00
    endloop
  endfacet
  facet normal 0.000000e+00 0.000000e+00 -1.000000e+00
    outer loop
      vertex   3.500000e+01 1.175000e+00 2.550000e+00
      vertex   3.624808e+01 6.278868e-01 2.550000e+00
      vertex   3.585886e+01 4.203715e-01 2.550000e+00
    endloop
  endfacet
  facet normal 0.000000e+00 0.000000e+00 -1.000000e+00
    outer loop
      vertex   3.534294e+01 1.220148e+00 2.550000e+00
      vertex   3.566250e+01 1.352516e+00 2.550000e+00
      vertex   3.658933e+01 9.073464e-01 2.550000e+00
    endloop
  endfacet
  facet normal 0.000000e+00 0.000000e+00 -1.000000e+00
    outer loop
      vertex   3.658933e+01 9.073464e-01 2.550000e+00
      vertex   3.566250e+01 1.352516e+00 2.550000e+00
      vertex   3.686950e+01 1.248011e+00 2.550000e+00
    endloop
  endfacet
  facet normal 0.000000e+00 0.000000e+00 -1.000000e+00
    outer loop
      vertex   3.686950e+01 1.248011e+00 2.550000e+00
      vertex   3.566250e+01 1.352516e+00 2.550000e+00
      vertex   3.593692e+01 1.563084e+00 2.550000e+00
    endloop
  endfacet
  facet normal 0.000000e+00 0.000000e+00 -1.000000e+00
    outer loop
      vertex   3.686950e+01 1.248011e+00 2.550000e+00
      vertex   3.593692e+01 1.563084e+00 2.550000e+00
      vertex   3.707783e+01 1.636788e+00 2.550000e+00
    endloop
  endfacet
  facet normal -0.000000e+00 0.000000e+00 -1.000000e+00
    outer loop
      vertex   3.707783e+01 1.636788e+00 2.550000e+00
      vertex   3.593692e+01 1.563084e+00 2.550000e+00
      vertex   3.614748e+01 1.837500e+00 2.550000e+00
    endloop
  endfacet
  facet normal 0.000000e+00 0.000000e+00 -1.000000e+00
    outer loop
      vertex   3.707783e+01 1.636788e+00 2.550000e+00
      vertex   3.614748e+01 1.837500e+00 2.550000e+00
      vertex   3.720631e+01 2.058739e+00 2.550000e+00
    endloop
  endfacet
  facet normal -0.000000e+00 0.000000e+00 -1.000000e+00
    outer loop
      vertex   3.720631e+01 2.058739e+00 2.550000e+00
      vertex   3.614748e+01 1.837500e+00 2.550000e+00
      vertex   3.627985e+01 2.157065e+00 2.550000e+00
    endloop
  endfacet
  facet normal 0.000000e+00 0.000000e+00 -1.000000e+00
    outer loop
      vertex   3.720631e+01 2.058739e+00 2.550000e+00
      vertex   3.627985e+01 2.157065e+00 2.550000e+00
      vertex   3.725000e+01 2.497646e+00 2.550000e+00
    endloop
  endfacet
  facet normal -0.000000e+00 0.000000e+00 -1.000000e+00
    outer loop
      vertex   3.725000e+01 2.497646e+00 2.550000e+00
      vertex   3.627985e+01 2.157065e+00 2.550000e+00
      vertex   3.632500e+01 2.500000e+00 2.550000e+00
    endloop
  endfacet
  facet normal 0.000000e+00 0.000000e+00 -1.000000e+00
    outer loop
      vertex   3.725000e+01 2.497646e+00 2.550000e+00
      vertex   3.632500e+01 2.500000e+00 2.550000e+00
      vertex   3.627985e+01 2.842935e+00 2.550000e+00
    endloop
  endfacet
  facet normal 0.000000e+00 0.000000e+00 -1.000000e+00
    outer loop
      vertex   3.725000e+01 2.497646e+00 2.550000e+00
      vertex   3.627985e+01 2.842935e+00 2.550000e+00
      vertex   3.720723e+01 2.936645e+00 2.550000e+00
    endloop
  endfacet
  facet normal -0.000000e+00 0.000000e+00 -1.000000e+00
    outer loop
      vertex   3.720723e+01 2.936645e+00 2.550000e+00
      vertex   3.627985e+01 2.842935e+00 2.550000e+00
      vertex   3.614748e+01 3.162500e+00 2.550000e+00
    endloop
  endfacet
  facet normal 0.000000e+00 0.000000e+00 -1.000000e+00
    outer loop
      vertex   3.720723e+01 2.936645e+00 2.550000e+00
      vertex   3.614748e+01 3.162500e+00 2.550000e+00
      vertex   3.707963e+01 3.358863e+00 2.550000e+00
    endloop
  endfacet
  facet normal -0.000000e+00 0.000000e+00 -1.000000e+00
    outer loop
      vertex   3.707963e+01 3.358863e+00 2.550000e+00
      vertex   3.614748e+01 3.162500e+00 2.550000e+00
      vertex   3.593692e+01 3.436916e+00 2.550000e+00
    endloop
  endfacet
  facet normal 0.000000e+00 0.000000e+00 -1.000000e+00
    outer loop
      vertex   3.707963e+01 3.358863e+00 2.550000e+00
      vertex   3.593692e+01 3.436916e+00 2.550000e+00
      vertex   3.687211e+01 3.748075e+00 2.550000e+00
    endloop
  endfacet
  facet normal 0.000000e+00 0.000000e+00 -1.000000e+00
    outer loop
      vertex   3.687211e+01 3.748075e+00 2.550000e+00
      vertex   3.593692e+01 3.436916e+00 2.550000e+00
      vertex   3.566250e+01 3.647484e+00 2.550000e+00
    endloop
  endfacet
  facet normal -0.000000e+00 0.000000e+00 -1.000000e+00
    outer loop
      vertex   3.687211e+01 3.748075e+00 2.550000e+00
      vertex   3.566250e+01 3.647484e+00 2.550000e+00
      vertex   3.659265e+01 4.089325e+00 2.550000e+00
    endloop
  endfacet
  facet normal 0.000000e+00 0.000000e+00 -1.000000e+00
    outer loop
      vertex   3.659265e+01 4.089325e+00 2.550000e+00
      vertex   3.566250e+01 3.647484e+00 2.550000e+00
      vertex   3.534294e+01 3.779852e+00 2.550000e+00
    endloop
  endfacet
  facet normal 0.000000e+00 0.000000e+00 -1.000000e+00
    outer loop
      vertex   3.659265e+01 4.089325e+00 2.550000e+00
      vertex   3.534294e+01 3.779852e+00 2.550000e+00
      vertex   3.500000e+01 3.825000e+00 2.550000e+00
    endloop
  endfacet
  facet normal -0.000000e+00 0.000000e+00 -1.000000e+00
    outer loop
      vertex   3.385252e+01 3.162500e+00 2.550000e+00
      vertex   3.372015e+01 2.842935e+00 2.550000e+00
      vertex   9.558739e+00 5.293693e+00 2.550000e+00
    endloop
  endfacet
  facet normal 0.000000e+00 -0.000000e+00 -1.000000e+00
    outer loop
      vertex   3.625199e+01 4.369498e+00 2.550000e+00
      vertex   3.659265e+01 4.089325e+00 2.550000e+00
      vertex   3.500000e+01 3.825000e+00 2.550000e+00
    endloop
  endfacet
  facet normal -0.000000e+00 0.000000e+00 -1.000000e+00
    outer loop
      vertex   3.543665e+01 2.927752e-01 2.550000e+00
      vertex   3.499765e+01 2.500012e-01 2.550000e+00
      vertex   3.455874e+01 2.936935e-01 2.550000e+00
    endloop
  endfacet
  facet normal 0.000000e+00 0.000000e+00 -1.000000e+00
    outer loop
      vertex   8.748011e+00 5.630502e+00 2.550000e+00
      vertex   8.407347e+00 5.910675e+00 2.550000e+00
      vertex   1.000000e+01 6.175000e+00 2.550000e+00
    endloop
  endfacet
  facet normal 0.000000e+00 0.000000e+00 -1.000000e+00
    outer loop
      vertex   9.563356e+00 9.707225e+00 2.550000e+00
      vertex   1.000235e+01 9.749999e+00 2.550000e+00
      vertex   1.044126e+01 9.706307e+00 2.550000e+00
    endloop
  endfacet
  facet normal -1.961161e-01 -9.805807e-01 0.000000e+00
    outer loop
      vertex   9.558739e+00 5.293693e+00 2.550000e+00
      vertex   3.455874e+01 2.936935e-01 2.550000e+00
      vertex   9.558739e+00 5.293693e+00 7.450000e+00
    endloop
  endfacet
  facet normal -1.961161e-01 -9.805807e-01 0.000000e+00
    outer loop
      vertex   9.558739e+00 5.293693e+00 7.450000e+00
      vertex   3.455874e+01 2.936935e-01 2.550000e+00
      vertex   3.455874e+01 2.936935e-01 7.450000e+00
    endloop
  endfacet
  facet normal -9.905807e-02 -9.950817e-01 -0.000000e+00
    outer loop
      vertex   3.455874e+01 2.936935e-01 7.450000e+00
      vertex   3.455874e+01 2.936935e-01 2.550000e+00
      vertex   3.499765e+01 2.500012e-01 7.450000e+00
    endloop
  endfacet
  facet normal -9.905807e-02 -9.950817e-01 -0.000000e+00
    outer loop
      vertex   3.499765e+01 2.500012e-01 7.450000e+00
      vertex   3.455874e+01 2.936935e-01 2.550000e+00
      vertex   3.499765e+01 2.500012e-01 2.550000e+00
    endloop
  endfacet
  facet normal 9.697610e-02 -9.952867e-01 0.000000e+00
    outer loop
      vertex   3.499765e+01 2.500012e-01 7.450000e+00
      vertex   3.499765e+01 2.500012e-01 2.550000e+00
      vertex   3.543665e+01 2.927752e-01 7.450000e+00
    endloop
  endfacet
  facet normal 9.697610e-02 -9.952867e-01 0.000000e+00
    outer loop
      vertex   3.543665e+01 2.927752e-01 7.450000e+00
      vertex   3.499765e+01 2.500012e-01 2.550000e+00
      vertex   3.543665e+01 2.927752e-01 2.550000e+00
    endloop
  endfacet
  facet normal 2.892835e-01 -9.572435e-01 0.000000e+00
    outer loop
      vertex   3.543665e+01 2.927752e-01 7.450000e+00
      vertex   3.543665e+01 2.927752e-01 2.550000e+00
      vertex   3.585886e+01 4.203715e-01 7.450000e+00
    endloop
  endfacet
  facet normal 2.892835e-01 -9.572435e-01 -5.422213e-17
    outer loop
      vertex   3.585886e+01 4.203715e-01 7.450000e+00
      vertex   3.543665e+01 2.927752e-01 2.550000e+00
      vertex   3.585886e+01 4.203715e-01 2.550000e+00
    endloop
  endfacet
  facet normal 4.704740e-01 -8.824139e-01 -4.998348e-17
    outer loop
      vertex   3.585886e+01 4.203715e-01 7.450000e+00
      vertex   3.585886e+01 4.203715e-01 2.550000e+00
      vertex   3.624808e+01 6.278868e-01 7.450000e+00
    endloop
  endfacet
  facet normal 4.704740e-01 -8.824139e-01 -3.998678e-17
    outer loop
      vertex   3.624808e+01 6.278868e-01 7.450000e+00
      vertex   3.585886e+01 4.203715e-01 2.550000e+00
      vertex   3.624808e+01 6.278868e-01 2.550000e+00
    endloop
  endfacet
  facet normal 6.335844e-01 -7.736736e-01 -3.505919e-17
    outer loop
      vertex   3.624808e+01 6.278868e-01 7.450000e+00
      vertex   3.624808e+01 6.278868e-01 2.550000e+00
      vertex   3.658933e+01 9.073464e-01 7.450000e+00
    endloop
  endfacet
  facet normal 6.335844e-01 -7.736736e-01 -3.505919e-17
    outer loop
      vertex   3.658933e+01 9.073464e-01 7.450000e+00
      vertex   3.624808e+01 6.278868e-01 2.550000e+00
      vertex   3.658933e+01 9.073464e-01 2.550000e+00
    endloop
  endfacet
  facet normal 7.723464e-01 -6.352015e-01 -2.878430e-17
    outer loop
      vertex   3.658933e+01 9.073464e-01 7.450000e+00
      vertex   3.658933e+01 9.073464e-01 2.550000e+00
      vertex   3.686950e+01 1.248011e+00 7.450000e+00
    endloop
  endfacet
  facet normal 7.723464e-01 -6.352015e-01 1.062401e-15
    outer loop
      vertex   3.686950e+01 1.248011e+00 7.450000e+00
      vertex   3.658933e+01 9.073464e-01 2.550000e+00
      vertex   3.686950e+01 1.248011e+00 2.550000e+00
    endloop
  endfacet
  facet normal 8.814277e-01 -4.723190e-01 1.235341e-15
    outer loop
      vertex   3.686950e+01 1.248011e+00 7.450000e+00
      vertex   3.686950e+01 1.248011e+00 2.550000e+00
      vertex   3.707783e+01 1.636788e+00 7.450000e+00
    endloop
  endfacet
  facet normal 8.814277e-01 -4.723190e-01 -1.284194e-16
    outer loop
      vertex   3.707783e+01 1.636788e+00 7.450000e+00
      vertex   3.686950e+01 1.248011e+00 2.550000e+00
      vertex   3.707783e+01 1.636788e+00 2.550000e+00
    endloop
  endfacet
  facet normal 9.566362e-01 -2.912855e-01 -7.919801e-17
    outer loop
      vertex   3.707783e+01 1.636788e+00 7.450000e+00
      vertex   3.707783e+01 1.636788e+00 2.550000e+00
      vertex   3.720631e+01 2.058739e+00 7.450000e+00
    endloop
  endfacet
  facet normal 9.566362e-01 -2.912855e-01 -7.919801e-17
    outer loop
      vertex   3.720631e+01 2.058739e+00 7.450000e+00
      vertex   3.707783e+01 1.636788e+00 2.550000e+00
      vertex   3.720631e+01 2.058739e+00 2.550000e+00
    endloop
  endfacet
  facet normal 9.950817e-01 -9.905807e-02 -2.693303e-17
    outer loop
      vertex   3.720631e+01 2.058739e+00 7.450000e+00
      vertex   3.720631e+01 2.058739e+00 2.550000e+00
      vertex   3.725000e+01 2.497646e+00 7.450000e+00
    endloop
  endfacet
  facet normal 9.950817e-01 -9.905807e-02 -1.795535e-17
    outer loop
      vertex   3.725000e+01 2.497646e+00 7.450000e+00
      vertex   3.720631e+01 2.058739e+00 2.550000e+00
      vertex   3.725000e+01 2.497646e+00 2.550000e+00
    endloop
  endfacet
  facet normal 9.952867e-01 9.697610e-02 1.757798e-17
    outer loop
      vertex   3.725000e+01 2.497646e+00 7.450000e+00
      vertex   3.725000e+01 2.497646e+00 2.550000e+00
      vertex   3.720723e+01 2.936645e+00 7.450000e+00
    endloop
  endfacet
  facet normal 9.952867e-01 9.697610e-02 2.636696e-17
    outer loop
      vertex   3.720723e+01 2.936645e+00 7.450000e+00
      vertex   3.725000e+01 2.497646e+00 2.550000e+00
      vertex   3.720723e+01 2.936645e+00 2.550000e+00
    endloop
  endfacet
  facet normal 9.572435e-01 2.892835e-01 7.865369e-17
    outer loop
      vertex   3.720723e+01 2.936645e+00 7.450000e+00
      vertex   3.720723e+01 2.936645e+00 2.550000e+00
      vertex   3.707963e+01 3.358863e+00 7.450000e+00
    endloop
  endfacet
  facet normal 9.572435e-01 2.892835e-01 5.243580e-17
    outer loop
      vertex   3.707963e+01 3.358863e+00 7.450000e+00
      vertex   3.720723e+01 2.936645e+00 2.550000e+00
      vertex   3.707963e+01 3.358863e+00 2.550000e+00
    endloop
  endfacet
  facet normal 8.824139e-01 4.704740e-01 8.527854e-17
    outer loop
      vertex   3.707963e+01 3.358863e+00 7.450000e+00
      vertex   3.707963e+01 3.358863e+00 2.550000e+00
      vertex   3.687211e+01 3.748075e+00 7.450000e+00
    endloop
  endfacet
  facet normal 8.824139e-01 4.704740e-01 8.527854e-17
    outer loop
      vertex   3.687211e+01 3.748075e+00 7.450000e+00
      vertex   3.707963e+01 3.358863e+00 2.550000e+00
      vertex   3.687211e+01 3.748075e+00 2.550000e+00
    endloop
  endfacet
  facet normal 7.736736e-01 6.335844e-01 1.148441e-16
    outer loop
      vertex   3.687211e+01 3.748075e+00 7.450000e+00
      vertex   3.687211e+01 3.748075e+00 2.550000e+00
      vertex   3.659265e+01 4.089325e+00 7.450000e+00
    endloop
  endfacet
  facet normal 7.736736e-01 6.335844e-01 1.148441e-16
    outer loop
      vertex   3.659265e+01 4.089325e+00 7.450000e+00
      vertex   3.687211e+01 3.748075e+00 2.550000e+00
      vertex   3.659265e+01 4.089325e+00 2.550000e+00
    endloop
  endfacet
  facet normal 6.352015e-01 7.723464e-01 1.399962e-16
    outer loop
      vertex   3.659265e+01 4.089325e+00 7.450000e+00
      vertex   3.659265e+01 4.089325e+00 2.550000e+00
      vertex   3.625199e+01 4.369498e+00 7.450000e+00
    endloop
  endfacet
  facet normal 6.352015e-01 7.723464e-01 2.799924e-16
    outer loop
      vertex   3.625199e+01 4.369498e+00 7.450000e+00
      vertex   3.659265e+01 4.089325e+00 2.550000e+00
      vertex   3.625199e+01 4.369498e+00 2.550000e+00
    endloop
  endfacet
  facet normal 4.723190e-01 8.814277e-01 3.195368e-16
    outer loop
      vertex   3.625199e+01 4.369498e+00 7.450000e+00
      vertex   3.625199e+01 4.369498e+00 2.550000e+00
      vertex   3.586321e+01 4.577827e+00 7.450000e+00
    endloop
  endfacet
  facet normal 4.723190e-01 8.814277e-01 0.000000e+00
    outer loop
      vertex   3.586321e+01 4.577827e+00 7.450000e+00
      vertex   3.625199e+01 4.369498e+00 2.550000e+00
      vertex   3.586321e+01 4.577827e+00 2.550000e+00
    endloop
  endfacet
  facet normal 2.912855e-01 9.566362e-01 0.000000e+00
    outer loop
      vertex   3.586321e+01 4.577827e+00 7.450000e+00
      vertex   3.586321e+01 4.577827e+00 2.550000e+00
      vertex   3.544126e+01 4.706307e+00 7.450000e+00
    endloop
  endfacet
  facet normal 2.912855e-01 9.566362e-01 0.000000e+00
    outer loop
      vertex   3.544126e+01 4.706307e+00 7.450000e+00
      vertex   3.586321e+01 4.577827e+00 2.550000e+00
      vertex   3.544126e+01 4.706307e+00 2.550000e+00
    endloop
  endfacet
  facet normal 9.914449e-01 -1.305262e-01 0.000000e+00
    outer loop
      vertex   3.372015e+01 2.842935e+00 2.550000e+00
      vertex   3.372015e+01 2.842935e+00 7.450000e+00
      vertex   3.367500e+01 2.500000e+00 2.550000e+00
    endloop
  endfacet
  facet normal 9.914449e-01 -1.305262e-01 0.000000e+00
    outer loop
      vertex   3.367500e+01 2.500000e+00 2.550000e+00
      vertex   3.372015e+01 2.842935e+00 7.450000e+00
      vertex   3.367500e+01 2.500000e+00 7.450000e+00
    endloop
  endfacet
  facet normal 9.914449e-01 1.305262e-01 -0.000000e+00
    outer loop
      vertex   3.367500e+01 2.500000e+00 2.550000e+00
      vertex   3.367500e+01 2.500000e+00 7.450000e+00
      vertex   3.372015e+01 2.157065e+00 2.550000e+00
    endloop
  endfacet
  facet normal 9.914449e-01 1.305262e-01 -0.000000e+00
    outer loop
      vertex   3.372015e+01 2.157065e+00 2.550000e+00
      vertex   3.367500e+01 2.500000e+00 7.450000e+00
      vertex   3.372015e+01 2.157065e+00 7.450000e+00
    endloop
  endfacet
  facet normal 9.238795e-01 3.826834e-01 -0.000000e+00
    outer loop
      vertex   3.372015e+01 2.157065e+00 2.550000e+00
      vertex   3.372015e+01 2.157065e+00 7.450000e+00
      vertex   3.385252e+01 1.837500e+00 2.550000e+00
    endloop
  endfacet
  facet normal 9.238795e-01 3.826834e-01 -0.000000e+00
    outer loop
      vertex   3.385252e+01 1.837500e+00 2.550000e+00
      vertex   3.372015e+01 2.157065e+00 7.450000e+00
      vertex   3.385252e+01 1.837500e+00 7.450000e+00
    endloop
  endfacet
  facet normal 7.933533e-01 6.087614e-01 -0.000000e+00
    outer loop
      vertex   3.385252e+01 1.837500e+00 2.550000e+00
      vertex   3.385252e+01 1.837500e+00 7.450000e+00
      vertex   3.406308e+01 1.563084e+00 2.550000e+00
    endloop
  endfacet
  facet normal 7.933533e-01 6.087614e-01 -0.000000e+00
    outer loop
      vertex   3.406308e+01 1.563084e+00 2.550000e+00
      vertex   3.385252e+01 1.837500e+00 7.450000e+00
      vertex   3.406308e+01 1.563084e+00 7.450000e+00
    endloop
  endfacet
  facet normal 6.087614e-01 7.933533e-01 -0.000000e+00
    outer loop
      vertex   3.406308e+01 1.563084e+00 2.550000e+00
      vertex   3.406308e+01 1.563084e+00 7.450000e+00
      vertex   3.433750e+01 1.352516e+00 2.550000e+00
    endloop
  endfacet
  facet normal 6.087614e-01 7.933533e-01 -0.000000e+00
    outer loop
      vertex   3.433750e+01 1.352516e+00 2.550000e+00
      vertex   3.406308e+01 1.563084e+00 7.450000e+00
      vertex   3.433750e+01 1.352516e+00 7.450000e+00
    endloop
  endfacet
  facet normal 3.826834e-01 9.238795e-01 -0.000000e+00
    outer loop
      vertex   3.433750e+01 1.352516e+00 2.550000e+00
      vertex   3.433750e+01 1.352516e+00 7.450000e+00
      vertex   3.465707e+01 1.220148e+00 2.550000e+00
    endloop
  endfacet
  facet normal 3.826834e-01 9.238795e-01 -0.000000e+00
    outer loop
      vertex   3.465707e+01 1.220148e+00 2.550000e+00
      vertex   3.433750e+01 1.352516e+00 7.450000e+00
      vertex   3.465707e+01 1.220148e+00 7.450000e+00
    endloop
  endfacet
  facet normal 1.305262e-01 9.914449e-01 -0.000000e+00
    outer loop
      vertex   3.465707e+01 1.220148e+00 2.550000e+00
      vertex   3.465707e+01 1.220148e+00 7.450000e+00
      vertex   3.500000e+01 1.175000e+00 2.550000e+00
    endloop
  endfacet
  facet normal 1.305262e-01 9.914449e-01 -0.000000e+00
    outer loop
      vertex   3.500000e+01 1.175000e+00 2.550000e+00
      vertex   3.465707e+01 1.220148e+00 7.450000e+00
      vertex   3.500000e+01 1.175000e+00 7.450000e+00
    endloop
  endfacet
  facet normal -1.305262e-01 9.914449e-01 0.000000e+00
    outer loop
      vertex   3.500000e+01 1.175000e+00 2.550000e+00
      vertex   3.500000e+01 1.175000e+00 7.450000e+00
      vertex   3.534294e+01 1.220148e+00 2.550000e+00
    endloop
  endfacet
  facet normal -1.305262e-01 9.914449e-01 0.000000e+00
    outer loop
      vertex   3.534294e+01 1.220148e+00 2.550000e+00
      vertex   3.500000e+01 1.175000e+00 7.450000e+00
      vertex   3.534294e+01 1.220148e+00 7.450000e+00
    endloop
  endfacet
  facet normal -3.826834e-01 9.238795e-01 0.000000e+00
    outer loop
      vertex   3.534294e+01 1.220148e+00 2.550000e+00
      vertex   3.534294e+01 1.220148e+00 7.450000e+00
      vertex   3.566250e+01 1.352516e+00 2.550000e+00
    endloop
  endfacet
  facet normal -3.826834e-01 9.238795e-01 0.000000e+00
    outer loop
      vertex   3.566250e+01 1.352516e+00 2.550000e+00
      vertex   3.534294e+01 1.220148e+00 7.450000e+00
      vertex   3.566250e+01 1.352516e+00 7.450000e+00
    endloop
  endfacet
  facet normal -6.087614e-01 7.933533e-01 0.000000e+00
    outer loop
      vertex   3.566250e+01 1.352516e+00 2.550000e+00
      vertex   3.566250e+01 1.352516e+00 7.450000e+00
      vertex   3.593692e+01 1.563084e+00 2.550000e+00
    endloop
  endfacet
  facet normal -6.087614e-01 7.933533e-01 0.000000e+00
    outer loop
      vertex   3.593692e+01 1.563084e+00 2.550000e+00
      vertex   3.566250e+01 1.352516e+00 7.450000e+00
      vertex   3.593692e+01 1.563084e+00 7.450000e+00
    endloop
  endfacet
  facet normal -7.933533e-01 6.087614e-01 0.000000e+00
    outer loop
      vertex   3.593692e+01 1.563084e+00 2.550000e+00
      vertex   3.593692e+01 1.563084e+00 7.450000e+00
      vertex   3.614748e+01 1.837500e+00 2.550000e+00
    endloop
  endfacet
  facet normal -7.933533e-01 6.087614e-01 0.000000e+00
    outer loop
      vertex   3.614748e+01 1.837500e+00 2.550000e+00
      vertex   3.593692e+01 1.563084e+00 7.450000e+00
      vertex   3.614748e+01 1.837500e+00 7.450000e+00
    endloop
  endfacet
  facet normal -9.238795e-01 3.826834e-01 0.000000e+00
    outer loop
      vertex   3.614748e+01 1.837500e+00 2.550000e+00
      vertex   3.614748e+01 1.837500e+00 7.450000e+00
      vertex   3.627985e+01 2.157065e+00 2.550000e+00
    endloop
  endfacet
  facet normal -9.238795e-01 3.826834e-01 0.000000e+00
    outer loop
      vertex   3.627985e+01 2.157065e+00 2.550000e+00
      vertex   3.614748e+01 1.837500e+00 7.450000e+00
      vertex   3.627985e+01 2.157065e+00 7.450000e+00
    endloop
  endfacet
  facet normal -9.914449e-01 1.305262e-01 0.000000e+00
    outer loop
      vertex   3.627985e+01 2.157065e+00 2.550000e+00
      vertex   3.627985e+01 2.157065e+00 7.450000e+00
      vertex   3.632500e+01 2.500000e+00 2.550000e+00
    endloop
  endfacet
  facet normal -9.914449e-01 1.305262e-01 0.000000e+00
    outer loop
      vertex   3.632500e+01 2.500000e+00 2.550000e+00
      vertex   3.627985e+01 2.157065e+00 7.450000e+00
      vertex   3.632500e+01 2.500000e+00 7.450000e+00
    endloop
  endfacet
  facet normal -9.914449e-01 -1.305262e-01 0.000000e+00
    outer loop
      vertex   3.632500e+01 2.500000e+00 2.550000e+00
      vertex   3.632500e+01 2.500000e+00 7.450000e+00
      vertex   3.627985e+01 2.842935e+00 2.550000e+00
    endloop
  endfacet
  facet normal -9.914449e-01 -1.305262e-01 0.000000e+00
    outer loop
      vertex   3.627985e+01 2.842935e+00 2.550000e+00
      vertex   3.632500e+01 2.500000e+00 7.450000e+00
      vertex   3.627985e+01 2.842935e+00 7.450000e+00
    endloop
  endfacet
  facet normal -9.238795e-01 -3.826834e-01 0.000000e+00
    outer loop
      vertex   3.627985e+01 2.842935e+00 2.550000e+00
      vertex   3.627985e+01 2.842935e+00 7.450000e+00
      vertex   3.614748e+01 3.162500e+00 2.550000e+00
    endloop
  endfacet
  facet normal -9.238795e-01 -3.826834e-01 0.000000e+00
    outer loop
      vertex   3.614748e+01 3.162500e+00 2.550000e+00
      vertex   3.627985e+01 2.842935e+00 7.450000e+00
      vertex   3.614748e+01 3.162500e+00 7.450000e+00
    endloop
  endfacet
  facet normal -7.933533e-01 -6.087614e-01 0.000000e+00
    outer loop
      vertex   3.614748e+01 3.162500e+00 2.550000e+00
      vertex   3.614748e+01 3.162500e+00 7.450000e+00
      vertex   3.593692e+01 3.436916e+00 2.550000e+00
    endloop
  endfacet
  facet normal -7.933533e-01 -6.087614e-01 0.000000e+00
    outer loop
      vertex   3.593692e+01 3.436916e+00 2.550000e+00
      vertex   3.614748e+01 3.162500e+00 7.450000e+00
      vertex   3.593692e+01 3.436916e+00 7.450000e+00
    endloop
  endfacet
  facet normal -6.087614e-01 -7.933533e-01 0.000000e+00
    outer loop
      vertex   3.593692e+01 3.436916e+00 2.550000e+00
      vertex   3.593692e+01 3.436916e+00 7.450000e+00
      vertex   3.566250e+01 3.647484e+00 2.550000e+00
    endloop
  endfacet
  facet normal -6.087614e-01 -7.933533e-01 0.000000e+00
    outer loop
      vertex   3.566250e+01 3.647484e+00 2.550000e+00
      vertex   3.593692e+01 3.436916e+00 7.450000e+00
      vertex   3.566250e+01 3.647484e+00 7.450000e+00
    endloop
  endfacet
  facet normal -3.826834e-01 -9.238795e-01 0.000000e+00
    outer loop
      vertex   3.566250e+01 3.647484e+00 2.550000e+00
      vertex   3.566250e+01 3.647484e+00 7.450000e+00
      vertex   3.534294e+01 3.779852e+00 2.550000e+00
    endloop
  endfacet
  facet normal -3.826834e-01 -9.238795e-01 0.000000e+00
    outer loop
      vertex   3.534294e+01 3.779852e+00 2.550000e+00
      vertex   3.566250e+01 3.647484e+00 7.450000e+00
      vertex   3.534294e+01 3.779852e+00 7.450000e+00
    endloop
  endfacet
  facet normal -1.305262e-01 -9.914449e-01 0.000000e+00
    outer loop
      vertex   3.534294e+01 3.779852e+00 2.550000e+00
      vertex   3.534294e+01 3.779852e+00 7.450000e+00
      vertex   3.500000e+01 3.825000e+00 2.550000e+00
    endloop
  endfacet
  facet normal -1.305262e-01 -9.914449e-01 0.000000e+00
    outer loop
      vertex   3.500000e+01 3.825000e+00 2.550000e+00
      vertex   3.534294e+01 3.779852e+00 7.450000e+00
      vertex   3.500000e+01 3.825000e+00 7.450000e+00
    endloop
  endfacet
  facet normal 1.305262e-01 -9.914449e-01 0.000000e+00
    outer loop
      vertex   3.500000e+01 3.825000e+00 2.550000e+00
      vertex   3.500000e+01 3.825000e+00 7.450000e+00
      vertex   3.465707e+01 3.779852e+00 2.550000e+00
    endloop
  endfacet
  facet normal 1.305262e-01 -9.914449e-01 0.000000e+00
    outer loop
      vertex   3.465707e+01 3.779852e+00 2.550000e+00
      vertex   3.500000e+01 3.825000e+00 7.450000e+00
      vertex   3.465707e+01 3.779852e+00 7.450000e+00
    endloop
  endfacet
  facet normal 3.826834e-01 -9.238795e-01 0.000000e+00
    outer loop
      vertex   3.465707e+01 3.779852e+00 2.550000e+00
      vertex   3.465707e+01 3.779852e+00 7.450000e+00
      vertex   3.433750e+01 3.647484e+00 2.550000e+00
    endloop
  endfacet
  facet normal 3.826834e-01 -9.238795e-01 0.000000e+00
    outer loop
      vertex   3.433750e+01 3.647484e+00 2.550000e+00
      vertex   3.465707e+01 3.779852e+00 7.450000e+00
      vertex   3.433750e+01 3.647484e+00 7.450000e+00
    endloop
  endfacet
  facet normal 6.087614e-01 -7.933533e-01 0.000000e+00
    outer loop
      vertex   3.433750e+01 3.647484e+00 2.550000e+00
      vertex   3.433750e+01 3.647484e+00 7.450000e+00
      vertex   3.406308e+01 3.436916e+00 2.550000e+00
    endloop
  endfacet
  facet normal 6.087614e-01 -7.933533e-01 0.000000e+00
    outer loop
      vertex   3.406308e+01 3.436916e+00 2.550000e+00
      vertex   3.433750e+01 3.647484e+00 7.450000e+00
      vertex   3.406308e+01 3.436916e+00 7.450000e+00
    endloop
  endfacet
  facet normal 7.933533e-01 -6.087614e-01 0.000000e+00
    outer loop
      vertex   3.406308e+01 3.436916e+00 2.550000e+00
      vertex   3.406308e+01 3.436916e+00 7.450000e+00
      vertex   3.385252e+01 3.162500e+00 2.550000e+00
    endloop
  endfacet
  facet normal 7.933533e-01 -6.087614e-01 0.000000e+00
    outer loop
      vertex   3.385252e+01 3.162500e+00 2.550000e+00
      vertex   3.406308e+01 3.436916e+00 7.450000e+00
      vertex   3.385252e+01 3.162500e+00 7.450000e+00
    endloop
  endfacet
  facet normal 9.238795e-01 -3.826834e-01 0.000000e+00
    outer loop
      vertex   3.385252e+01 3.162500e+00 2.550000e+00
      vertex   3.385252e+01 3.162500e+00 7.450000e+00
      vertex   3.372015e+01 2.842935e+00 2.550000e+00
    endloop
  endfacet
  facet normal 9.238795e-01 -3.826834e-01 0.000000e+00
    outer loop
      vertex   3.372015e+01 2.842935e+00 2.550000e+00
      vertex   3.385252e+01 3.162500e+00 7.450000e+00
      vertex   3.372015e+01 2.842935e+00 7.450000e+00
    endloop
  endfacet
  facet normal -9.914449e-01 1.305262e-01 0.000000e+00
    outer loop
      vertex   1.127985e+01 7.157065e+00 2.550000e+00
      vertex   1.127985e+01 7.157065e+00 7.450000e+00
      vertex   1.132500e+01 7.500000e+00 2.550000e+00
    endloop
  endfacet
  facet normal -9.914449e-01 1.305262e-01 0.000000e+00
    outer loop
      vertex   1.132500e+01 7.500000e+00 2.550000e+00
      vertex   1.127985e+01 7.157065e+00 7.450000e+00
      vertex   1.132500e+01 7.500000e+00 7.450000e+00
    endloop
  endfacet
  facet normal -9.914449e-01 -1.305262e-01 0.000000e+00
    outer loop
      vertex   1.132500e+01 7.500000e+00 2.550000e+00
      vertex   1.132500e+01 7.500000e+00 7.450000e+00
      vertex   1.127985e+01 7.842935e+00 2.550000e+00
    endloop
  endfacet
  facet normal -9.914449e-01 -1.305262e-01 0.000000e+00
    outer loop
      vertex   1.127985e+01 7.842935e+00 2.550000e+00
      vertex   1.132500e+01 7.500000e+00 7.450000e+00
      vertex   1.127985e+01 7.842935e+00 7.450000e+00
    endloop
  endfacet
  facet normal -9.238795e-01 -3.826834e-01 0.000000e+00
    outer loop
      vertex   1.127985e+01 7.842935e+00 2.550000e+00
      vertex   1.127985e+01 7.842935e+00 7.450000e+00
      vertex   1.114748e+01 8.162500e+00 2.550000e+00
    endloop
  endfacet
  facet normal -9.238795e-01 -3.826834e-01 0.000000e+00
    outer loop
      vertex   1.114748e+01 8.162500e+00 2.550000e+00
      vertex   1.127985e+01 7.842935e+00 7.450000e+00
      vertex   1.114748e+01 8.162500e+00 7.450000e+00
    endloop
  endfacet
  facet normal -7.933533e-01 -6.087614e-01 0.000000e+00
    outer loop
      vertex   1.114748e+01 8.162500e+00 2.550000e+00
      vertex   1.114748e+01 8.162500e+00 7.450000e+00
      vertex   1.093692e+01 8.436916e+00 2.550000e+00
    endloop
  endfacet
  facet normal -7.933533e-01 -6.087614e-01 0.000000e+00
    outer loop
      vertex   1.093692e+01 8.436916e+00 2.550000e+00
      vertex   1.114748e+01 8.162500e+00 7.450000e+00
      vertex   1.093692e+01 8.436916e+00 7.450000e+00
    endloop
  endfacet
  facet normal -6.087614e-01 -7.933533e-01 0.000000e+00
    outer loop
      vertex   1.093692e+01 8.436916e+00 2.550000e+00
      vertex   1.093692e+01 8.436916e+00 7.450000e+00
      vertex   1.066250e+01 8.647484e+00 2.550000e+00
    endloop
  endfacet
  facet normal -6.087614e-01 -7.933533e-01 0.000000e+00
    outer loop
      vertex   1.066250e+01 8.647484e+00 2.550000e+00
      vertex   1.093692e+01 8.436916e+00 7.450000e+00
      vertex   1.066250e+01 8.647484e+00 7.450000e+00
    endloop
  endfacet
  facet normal -3.826834e-01 -9.238795e-01 0.000000e+00
    outer loop
      vertex   1.066250e+01 8.647484e+00 2.550000e+00
      vertex   1.066250e+01 8.647484e+00 7.450000e+00
      vertex   1.034294e+01 8.779852e+00 2.550000e+00
    endloop
  endfacet
  facet normal -3.826834e-01 -9.238795e-01 0.000000e+00
    outer loop
      vertex   1.034294e+01 8.779852e+00 2.550000e+00
      vertex   1.066250e+01 8.647484e+00 7.450000e+00
      vertex   1.034294e+01 8.779852e+00 7.450000e+00
    endloop
  endfacet
  facet normal -1.305262e-01 -9.914449e-01 0.000000e+00
    outer loop
      vertex   1.034294e+01 8.779852e+00 2.550000e+00
      vertex   1.034294e+01 8.779852e+00 7.450000e+00
      vertex   1.000000e+01 8.825000e+00 2.550000e+00
    endloop
  endfacet
  facet normal -1.305262e-01 -9.914449e-01 0.000000e+00
    outer loop
      vertex   1.000000e+01 8.825000e+00 2.550000e+00
      vertex   1.034294e+01 8.779852e+00 7.450000e+00
      vertex   1.000000e+01 8.825000e+00 7.450000e+00
    endloop
  endfacet
  facet normal 1.305262e-01 -9.914449e-01 0.000000e+00
    outer loop
      vertex   1.000000e+01 8.825000e+00 2.550000e+00
      vertex   1.000000e+01 8.825000e+00 7.450000e+00
      vertex   9.657065e+00 8.779852e+00 2.550000e+00
    endloop
  endfacet
  facet normal 1.305262e-01 -9.914449e-01 0.000000e+00
    outer loop
      vertex   9.657065e+00 8.779852e+00 2.550000e+00
      vertex   1.000000e+01 8.825000e+00 7.450000e+00
      vertex   9.657065e+00 8.779852e+00 7.450000e+00
    endloop
  endfacet
  facet normal 3.826834e-01 -9.238795e-01 0.000000e+00
    outer loop
      vertex   9.657065e+00 8.779852e+00 2.550000e+00
      vertex   9.657065e+00 8.779852e+00 7.450000e+00
      vertex   9.337501e+00 8.647484e+00 2.550000e+00
    endloop
  endfacet
  facet normal 3.826834e-01 -9.238795e-01 0.000000e+00
    outer loop
      vertex   9.337501e+00 8.647484e+00 2.550000e+00
      vertex   9.657065e+00 8.779852e+00 7.450000e+00
      vertex   9.337501e+00 8.647484e+00 7.450000e+00
    endloop
  endfacet
  facet normal 6.087614e-01 -7.933533e-01 0.000000e+00
    outer loop
      vertex   9.337501e+00 8.647484e+00 2.550000e+00
      vertex   9.337501e+00 8.647484e+00 7.450000e+00
      vertex   9.063084e+00 8.436916e+00 2.550000e+00
    endloop
  endfacet
  facet normal 6.087614e-01 -7.933533e-01 0.000000e+00
    outer loop
      vertex   9.063084e+00 8.436916e+00 2.550000e+00
      vertex   9.337501e+00 8.647484e+00 7.450000e+00
      vertex   9.063084e+00 8.436916e+00 7.450000e+00
    endloop
  endfacet
  facet normal 7.933533e-01 -6.087614e-01 0.000000e+00
    outer loop
      vertex   9.063084e+00 8.436916e+00 2.550000e+00
      vertex   9.063084e+00 8.436916e+00 7.450000e+00
      vertex   8.852517e+00 8.162500e+00 2.550000e+00
    endloop
  endfacet
  facet normal 7.933533e-01 -6.087614e-01 0.000000e+00
    outer loop
      vertex   8.852517e+00 8.162500e+00 2.550000e+00
      vertex   9.063084e+00 8.436916e+00 7.450000e+00
      vertex   8.852517e+00 8.162500e+00 7.450000e+00
    endloop
  endfacet
  facet normal 9.238795e-01 -3.826834e-01 0.000000e+00
    outer loop
      vertex   8.852517e+00 8.162500e+00 2.550000e+00
      vertex   8.852517e+00 8.162500e+00 7.450000e+00
      vertex   8.720149e+00 7.842935e+00 2.550000e+00
    endloop
  endfacet
  facet normal 9.238795e-01 -3.826834e-01 0.000000e+00
    outer loop
      vertex   8.720149e+00 7.842935e+00 2.550000e+00
      vertex   8.852517e+00 8.162500e+00 7.450000e+00
      vertex   8.720149e+00 7.842935e+00 7.450000e+00
    endloop
  endfacet
  facet normal 9.914449e-01 -1.305262e-01 0.000000e+00
    outer loop
      vertex   8.720149e+00 7.842935e+00 2.550000e+00
      vertex   8.720149e+00 7.842935e+00 7.450000e+00
      vertex   8.675001e+00 7.500000e+00 2.550000e+00
    endloop
  endfacet
  facet normal 9.914449e-01 -1.305262e-01 0.000000e+00
    outer loop
      vertex   8.675001e+00 7.500000e+00 2.550000e+00
      vertex   8.720149e+00 7.842935e+00 7.450000e+00
      vertex   8.675001e+00 7.500000e+00 7.450000e+00
    endloop
  endfacet
  facet normal 9.914449e-01 1.305262e-01 -0.000000e+00
    outer loop
      vertex   8.675001e+00 7.500000e+00 2.550000e+00
      vertex   8.675001e+00 7.500000e+00 7.450000e+00
      vertex   8.720149e+00 7.157065e+00 2.550000e+00
    endloop
  endfacet
  facet normal 9.914449e-01 1.305262e-01 -0.000000e+00
    outer loop
      vertex   8.720149e+00 7.157065e+00 2.550000e+00
      vertex   8.675001e+00 7.500000e+00 7.450000e+00
      vertex   8.720149e+00 7.157065e+00 7.450000e+00
    endloop
  endfacet
  facet normal 9.238795e-01 3.826834e-01 -0.000000e+00
    outer loop
      vertex   8.720149e+00 7.157065e+00 2.550000e+00
      vertex   8.720149e+00 7.157065e+00 7.450000e+00
      vertex   8.852517e+00 6.837500e+00 2.550000e+00
    endloop
  endfacet
  facet normal 9.238795e-01 3.826834e-01 -0.000000e+00
    outer loop
      vertex   8.852517e+00 6.837500e+00 2.550000e+00
      vertex   8.720149e+00 7.157065e+00 7.450000e+00
      vertex   8.852517e+00 6.837500e+00 7.450000e+00
    endloop
  endfacet
  facet normal 7.933533e-01 6.087614e-01 -0.000000e+00
    outer loop
      vertex   8.852517e+00 6.837500e+00 2.550000e+00
      vertex   8.852517e+00 6.837500e+00 7.450000e+00
      vertex   9.063084e+00 6.563084e+00 2.550000e+00
    endloop
  endfacet
  facet normal 7.933533e-01 6.087614e-01 -0.000000e+00
    outer loop
      vertex   9.063084e+00 6.563084e+00 2.550000e+00
      vertex   8.852517e+00 6.837500e+00 7.450000e+00
      vertex   9.063084e+00 6.563084e+00 7.450000e+00
    endloop
  endfacet
  facet normal 6.087614e-01 7.933533e-01 -0.000000e+00
    outer loop
      vertex   9.063084e+00 6.563084e+00 2.550000e+00
      vertex   9.063084e+00 6.563084e+00 7.450000e+00
      vertex   9.337501e+00 6.352516e+00 2.550000e+00
    endloop
  endfacet
  facet normal 6.087614e-01 7.933533e-01 -0.000000e+00
    outer loop
      vertex   9.337501e+00 6.352516e+00 2.550000e+00
      vertex   9.063084e+00 6.563084e+00 7.450000e+00
      vertex   9.337501e+00 6.352516e+00 7.450000e+00
    endloop
  endfacet
  facet normal 3.826834e-01 9.238795e-01 -0.000000e+00
    outer loop
      vertex   9.337501e+00 6.352516e+00 2.550000e+00
      vertex   9.337501e+00 6.352516e+00 7.450000e+00
      vertex   9.657065e+00 6.220148e+00 2.550000e+00
    endloop
  endfacet
  facet normal 3.826834e-01 9.238795e-01 -0.000000e+00
    outer loop
      vertex   9.657065e+00 6.220148e+00 2.550000e+00
      vertex   9.337501e+00 6.352516e+00 7.450000e+00
      vertex   9.657065e+00 6.220148e+00 7.450000e+00
    endloop
  endfacet
  facet normal 1.305262e-01 9.914449e-01 -0.000000e+00
    outer loop
      vertex   9.657065e+00 6.220148e+00 2.550000e+00
      vertex   9.657065e+00 6.220148e+00 7.450000e+00
      vertex   1.000000e+01 6.175000e+00 2.550000e+00
    endloop
  endfacet
  facet normal 1.305262e-01 9.914449e-01 -0.000000e+00
    outer loop
      vertex   1.000000e+01 6.175000e+00 2.550000e+00
      vertex   9.657065e+00 6.220148e+00 7.450000e+00
      vertex   1.000000e+01 6.175000e+00 7.450000e+00
    endloop
  endfacet
  facet normal -1.305262e-01 9.914449e-01 0.000000e+00
    outer loop
      vertex   1.000000e+01 6.175000e+00 2.550000e+00
      vertex   1.000000e+01 6.175000e+00 7.450000e+00
      vertex   1.034294e+01 6.220148e+00 2.550000e+00
    endloop
  endfacet
  facet normal -1.305262e-01 9.914449e-01 0.000000e+00
    outer loop
      vertex   1.034294e+01 6.220148e+00 2.550000e+00
      vertex   1.000000e+01 6.175000e+00 7.450000e+00
      vertex   1.034294e+01 6.220148e+00 7.450000e+00
    endloop
  endfacet
  facet normal -3.826834e-01 9.238795e-01 0.000000e+00
    outer loop
      vertex   1.034294e+01 6.220148e+00 2.550000e+00
      vertex   1.034294e+01 6.220148e+00 7.450000e+00
      vertex   1.066250e+01 6.352516e+00 2.550000e+00
    endloop
  endfacet
  facet normal -3.826834e-01 9.238795e-01 0.000000e+00
    outer loop
      vertex   1.066250e+01 6.352516e+00 2.550000e+00
      vertex   1.034294e+01 6.220148e+00 7.450000e+00
      vertex   1.066250e+01 6.352516e+00 7.450000e+00
    endloop
  endfacet
  facet normal -6.087614e-01 7.933533e-01 0.000000e+00
    outer loop
      vertex   1.066250e+01 6.352516e+00 2.550000e+00
      vertex   1.066250e+01 6.352516e+00 7.450000e+00
      vertex   1.093692e+01 6.563084e+00 2.550000e+00
    endloop
  endfacet
  facet normal -6.087614e-01 7.933533e-01 0.000000e+00
    outer loop
      vertex   1.093692e+01 6.563084e+00 2.550000e+00
      vertex   1.066250e+01 6.352516e+00 7.450000e+00
      vertex   1.093692e+01 6.563084e+00 7.450000e+00
    endloop
  endfacet
  facet normal -7.933533e-01 6.087614e-01 0.000000e+00
    outer loop
      vertex   1.093692e+01 6.563084e+00 2.550000e+00
      vertex   1.093692e+01 6.563084e+00 7.450000e+00
      vertex   1.114748e+01 6.837500e+00 2.550000e+00
    endloop
  endfacet
  facet normal -7.933533e-01 6.087614e-01 0.000000e+00
    outer loop
      vertex   1.114748e+01 6.837500e+00 2.550000e+00
      vertex   1.093692e+01 6.563084e+00 7.450000e+00
      vertex   1.114748e+01 6.837500e+00 7.450000e+00
    endloop
  endfacet
  facet normal -9.238795e-01 3.826834e-01 0.000000e+00
    outer loop
      vertex   1.114748e+01 6.837500e+00 2.550000e+00
      vertex   1.114748e+01 6.837500e+00 7.450000e+00
      vertex   1.127985e+01 7.157065e+00 2.550000e+00
    endloop
  endfacet
  facet normal -9.238795e-01 3.826834e-01 0.000000e+00
    outer loop
      vertex   1.127985e+01 7.157065e+00 2.550000e+00
      vertex   1.114748e+01 6.837500e+00 7.450000e+00
      vertex   1.127985e+01 7.157065e+00 7.450000e+00
    endloop
  endfacet
  facet normal 9.905807e-02 9.950817e-01 0.000000e+00
    outer loop
      vertex   1.044126e+01 9.706307e+00 7.450000e+00
      vertex   1.044126e+01 9.706307e+00 2.550000e+00
      vertex   1.000235e+01 9.749999e+00 7.450000e+00
    endloop
  endfacet
  facet normal 9.905807e-02 9.950817e-01 0.000000e+00
    outer loop
      vertex   1.000235e+01 9.749999e+00 7.450000e+00
      vertex   1.044126e+01 9.706307e+00 2.550000e+00
      vertex   1.000235e+01 9.749999e+00 2.550000e+00
    endloop
  endfacet
  facet normal -9.697610e-02 9.952867e-01 0.000000e+00
    outer loop
      vertex   1.000235e+01 9.749999e+00 7.450000e+00
      vertex   1.000235e+01 9.749999e+00 2.550000e+00
      vertex   9.563356e+00 9.707225e+00 7.450000e+00
    endloop
  endfacet
  facet normal -9.697610e-02 9.952867e-01 -3.515595e-17
    outer loop
      vertex   9.563356e+00 9.707225e+00 7.450000e+00
      vertex   1.000235e+01 9.749999e+00 2.550000e+00
      vertex   9.563356e+00 9.707225e+00 2.550000e+00
    endloop
  endfacet
  facet normal -2.892835e-01 9.572435e-01 -1.048716e-16
    outer loop
      vertex   9.563356e+00 9.707225e+00 7.450000e+00
      vertex   9.563356e+00 9.707225e+00 2.550000e+00
      vertex   9.141138e+00 9.579628e+00 7.450000e+00
    endloop
  endfacet
  facet normal -2.892835e-01 9.572435e-01 -1.048716e-16
    outer loop
      vertex   9.141138e+00 9.579628e+00 7.450000e+00
      vertex   9.563356e+00 9.707225e+00 2.550000e+00
      vertex   9.141138e+00 9.579628e+00 2.550000e+00
    endloop
  endfacet
  facet normal -4.704740e-01 8.824139e-01 -1.705571e-16
    outer loop
      vertex   9.141138e+00 9.579628e+00 7.450000e+00
      vertex   9.141138e+00 9.579628e+00 2.550000e+00
      vertex   8.751925e+00 9.372113e+00 7.450000e+00
    endloop
  endfacet
  facet normal -4.704740e-01 8.824139e-01 0.000000e+00
    outer loop
      vertex   8.751925e+00 9.372113e+00 7.450000e+00
      vertex   9.141138e+00 9.579628e+00 2.550000e+00
      vertex   8.751925e+00 9.372113e+00 2.550000e+00
    endloop
  endfacet
  facet normal -6.335844e-01 7.736736e-01 0.000000e+00
    outer loop
      vertex   8.751925e+00 9.372113e+00 7.450000e+00
      vertex   8.751925e+00 9.372113e+00 2.550000e+00
      vertex   8.410675e+00 9.092654e+00 7.450000e+00
    endloop
  endfacet
  facet normal -6.335844e-01 7.736736e-01 -2.296881e-16
    outer loop
      vertex   8.410675e+00 9.092654e+00 7.450000e+00
      vertex   8.751925e+00 9.372113e+00 2.550000e+00
      vertex   8.410675e+00 9.092654e+00 2.550000e+00
    endloop
  endfacet
  facet normal -7.723464e-01 6.352015e-01 -2.799924e-16
    outer loop
      vertex   8.410675e+00 9.092654e+00 7.450000e+00
      vertex   8.410675e+00 9.092654e+00 2.550000e+00
      vertex   8.130503e+00 8.751989e+00 7.450000e+00
    endloop
  endfacet
  facet normal -7.723464e-01 6.352015e-01 0.000000e+00
    outer loop
      vertex   8.130503e+00 8.751989e+00 7.450000e+00
      vertex   8.410675e+00 9.092654e+00 2.550000e+00
      vertex   8.130503e+00 8.751989e+00 2.550000e+00
    endloop
  endfacet
  facet normal -8.814277e-01 4.723190e-01 0.000000e+00
    outer loop
      vertex   8.130503e+00 8.751989e+00 7.450000e+00
      vertex   8.130503e+00 8.751989e+00 2.550000e+00
      vertex   7.922173e+00 8.363212e+00 7.450000e+00
    endloop
  endfacet
  facet normal -8.814277e-01 4.723190e-01 0.000000e+00
    outer loop
      vertex   7.922173e+00 8.363212e+00 7.450000e+00
      vertex   8.130503e+00 8.751989e+00 2.550000e+00
      vertex   7.922173e+00 8.363212e+00 2.550000e+00
    endloop
  endfacet
  facet normal -9.566362e-01 2.912855e-01 0.000000e+00
    outer loop
      vertex   7.922173e+00 8.363212e+00 7.450000e+00
      vertex   7.922173e+00 8.363212e+00 2.550000e+00
      vertex   7.793694e+00 7.941261e+00 7.450000e+00
    endloop
  endfacet
  facet normal -9.566362e-01 2.912855e-01 0.000000e+00
    outer loop
      vertex   7.793694e+00 7.941261e+00 7.450000e+00
      vertex   7.922173e+00 8.363212e+00 2.550000e+00
      vertex   7.793694e+00 7.941261e+00 2.550000e+00
    endloop
  endfacet
  facet normal -9.950817e-01 9.905807e-02 0.000000e+00
    outer loop
      vertex   7.793694e+00 7.941261e+00 7.450000e+00
      vertex   7.793694e+00 7.941261e+00 2.550000e+00
      vertex   7.750002e+00 7.502354e+00 7.450000e+00
    endloop
  endfacet
  facet normal -9.950817e-01 9.905807e-02 1.795535e-17
    outer loop
      vertex   7.750002e+00 7.502354e+00 7.450000e+00
      vertex   7.793694e+00 7.941261e+00 2.550000e+00
      vertex   7.750002e+00 7.502354e+00 2.550000e+00
    endloop
  endfacet
  facet normal -9.952867e-01 -9.697610e-02 -1.757798e-17
    outer loop
      vertex   7.750002e+00 7.502354e+00 7.450000e+00
      vertex   7.750002e+00 7.502354e+00 2.550000e+00
      vertex   7.792776e+00 7.063355e+00 7.450000e+00
    endloop
  endfacet
  facet normal -9.952867e-01 -9.697610e-02 -0.000000e+00
    outer loop
      vertex   7.792776e+00 7.063355e+00 7.450000e+00
      vertex   7.750002e+00 7.502354e+00 2.550000e+00
      vertex   7.792776e+00 7.063355e+00 2.550000e+00
    endloop
  endfacet
  facet normal -9.572435e-01 -2.892835e-01 -0.000000e+00
    outer loop
      vertex   7.792776e+00 7.063355e+00 7.450000e+00
      vertex   7.792776e+00 7.063355e+00 2.550000e+00
      vertex   7.920372e+00 6.641137e+00 7.450000e+00
    endloop
  endfacet
  facet normal -9.572435e-01 -2.892835e-01 -0.000000e+00
    outer loop
      vertex   7.920372e+00 6.641137e+00 7.450000e+00
      vertex   7.792776e+00 7.063355e+00 2.550000e+00
      vertex   7.920372e+00 6.641137e+00 2.550000e+00
    endloop
  endfacet
  facet normal -8.824139e-01 -4.704740e-01 -0.000000e+00
    outer loop
      vertex   7.920372e+00 6.641137e+00 7.450000e+00
      vertex   7.920372e+00 6.641137e+00 2.550000e+00
      vertex   8.127887e+00 6.251925e+00 7.450000e+00
    endloop
  endfacet
  facet normal -8.824139e-01 -4.704740e-01 -8.527854e-17
    outer loop
      vertex   8.127887e+00 6.251925e+00 7.450000e+00
      vertex   7.920372e+00 6.641137e+00 2.550000e+00
      vertex   8.127887e+00 6.251925e+00 2.550000e+00
    endloop
  endfacet
  facet normal -7.736736e-01 -6.335844e-01 -1.148441e-16
    outer loop
      vertex   8.127887e+00 6.251925e+00 7.450000e+00
      vertex   8.127887e+00 6.251925e+00 2.550000e+00
      vertex   8.407347e+00 5.910675e+00 7.450000e+00
    endloop
  endfacet
  facet normal -7.736736e-01 -6.335844e-01 -0.000000e+00
    outer loop
      vertex   8.407347e+00 5.910675e+00 7.450000e+00
      vertex   8.127887e+00 6.251925e+00 2.550000e+00
      vertex   8.407347e+00 5.910675e+00 2.550000e+00
    endloop
  endfacet
  facet normal -6.352015e-01 -7.723464e-01 -0.000000e+00
    outer loop
      vertex   8.407347e+00 5.910675e+00 7.450000e+00
      vertex   8.407347e+00 5.910675e+00 2.550000e+00
      vertex   8.748011e+00 5.630502e+00 7.450000e+00
    endloop
  endfacet
  facet normal -6.352015e-01 -7.723464e-01 -0.000000e+00
    outer loop
      vertex   8.748011e+00 5.630502e+00 7.450000e+00
      vertex   8.407347e+00 5.910675e+00 2.550000e+00
      vertex   8.748011e+00 5.630502e+00 2.550000e+00
    endloop
  endfacet
  facet normal -4.723190e-01 -8.814277e-01 -0.000000e+00
    outer loop
      vertex   8.748011e+00 5.630502e+00 7.450000e+00
      vertex   8.748011e+00 5.630502e+00 2.550000e+00
      vertex   9.136789e+00 5.422173e+00 7.450000e+00
    endloop
  endfacet
  facet normal -4.723190e-01 -8.814277e-01 -0.000000e+00
    outer loop
      vertex   9.136789e+00 5.422173e+00 7.450000e+00
      vertex   8.748011e+00 5.630502e+00 2.550000e+00
      vertex   9.136789e+00 5.422173e+00 2.550000e+00
    endloop
  endfacet
  facet normal -2.912855e-01 -9.566362e-01 -0.000000e+00
    outer loop
      vertex   9.136789e+00 5.422173e+00 7.450000e+00
      vertex   9.136789e+00 5.422173e+00 2.550000e+00
      vertex   9.558739e+00 5.293693e+00 7.450000e+00
    endloop
  endfacet
  facet normal -2.912855e-01 -9.566362e-01 -0.000000e+00
    outer loop
      vertex   9.558739e+00 5.293693e+00 7.450000e+00
      vertex   9.136789e+00 5.422173e+00 2.550000e+00
      vertex   9.558739e+00 5.293693e+00 2.550000e+00
    endloop
  endfacet
  facet normal 1.961161e-01 9.805807e-01 -0.000000e+00
    outer loop
      vertex   3.544126e+01 4.706307e+00 2.550000e+00
      vertex   1.044126e+01 9.706307e+00 2.550000e+00
      vertex   3.544126e+01 4.706307e+00 7.450000e+00
    endloop
  endfacet
  facet normal 1.961161e-01 9.805807e-01 0.000000e+00
    outer loop
      vertex   3.544126e+01 4.706307e+00 7.450000e+00
      vertex   1.044126e+01 9.706307e+00 2.550000e+00
      vertex   1.044126e+01 9.706307e+00 7.450000e+00
    endloop
  endfacet
  facet normal 0.000000e+00 0.000000e+00 1.000000e+00
    outer loop
      vertex   1.127985e+01 7.842935e+00 7.450000e+00
      vertex   1.132500e+01 7.500000e+00 7.450000e+00
      vertex   3.544126e+01 4.706307e+00 7.450000e+00
    endloop
  endfacet
  facet normal 0.000000e+00 0.000000e+00 1.000000e+00
    outer loop
      vertex   3.544126e+01 4.706307e+00 7.450000e+00
      vertex   1.132500e+01 7.500000e+00 7.450000e+00
      vertex   1.127985e+01 7.157065e+00 7.450000e+00
    endloop
  endfacet
  facet normal 0.000000e+00 0.000000e+00 1.000000e+00
    outer loop
      vertex   3.544126e+01 4.706307e+00 7.450000e+00
      vertex   1.127985e+01 7.157065e+00 7.450000e+00
      vertex   1.114748e+01 6.837500e+00 7.450000e+00
    endloop
  endfacet
  facet normal 0.000000e+00 0.000000e+00 1.000000e+00
    outer loop
      vertex   1.114748e+01 6.837500e+00 7.450000e+00
      vertex   1.093692e+01 6.563084e+00 7.450000e+00
      vertex   3.544126e+01 4.706307e+00 7.450000e+00
    endloop
  endfacet
  facet normal 0.000000e+00 0.000000e+00 1.000000e+00
    outer loop
      vertex   3.544126e+01 4.706307e+00 7.450000e+00
      vertex   1.093692e+01 6.563084e+00 7.450000e+00
      vertex   3.433750e+01 3.647484e+00 7.450000e+00
    endloop
  endfacet
  facet normal 0.000000e+00 0.000000e+00 1.000000e+00
    outer loop
      vertex   3.544126e+01 4.706307e+00 7.450000e+00
      vertex   3.433750e+01 3.647484e+00 7.450000e+00
      vertex   3.465707e+01 3.779852e+00 7.450000e+00
    endloop
  endfacet
  facet normal 0.000000e+00 0.000000e+00 1.000000e+00
    outer loop
      vertex   3.433750e+01 3.647484e+00 7.450000e+00
      vertex   1.093692e+01 6.563084e+00 7.450000e+00
      vertex   3.406308e+01 3.436916e+00 7.450000e+00
    endloop
  endfacet
  facet normal 0.000000e+00 0.000000e+00 1.000000e+00
    outer loop
      vertex   3.406308e+01 3.436916e+00 7.450000e+00
      vertex   1.093692e+01 6.563084e+00 7.450000e+00
      vertex   1.066250e+01 6.352516e+00 7.450000e+00
    endloop
  endfacet
  facet normal 0.000000e+00 0.000000e+00 1.000000e+00
    outer loop
      vertex   3.406308e+01 3.436916e+00 7.450000e+00
      vertex   1.066250e+01 6.352516e+00 7.450000e+00
      vertex   9.558739e+00 5.293693e+00 7.450000e+00
    endloop
  endfacet
  facet normal 0.000000e+00 0.000000e+00 1.000000e+00
    outer loop
      vertex   9.558739e+00 5.293693e+00 7.450000e+00
      vertex   1.066250e+01 6.352516e+00 7.450000e+00
      vertex   1.034294e+01 6.220148e+00 7.450000e+00
    endloop
  endfacet
  facet normal 0.000000e+00 0.000000e+00 1.000000e+00
    outer loop
      vertex   9.558739e+00 5.293693e+00 7.450000e+00
      vertex   1.034294e+01 6.220148e+00 7.450000e+00
      vertex   1.000000e+01 6.175000e+00 7.450000e+00
    endloop
  endfacet
  facet normal 0.000000e+00 0.000000e+00 1.000000e+00
    outer loop
      vertex   9.657065e+00 6.220148e+00 7.450000e+00
      vertex   8.407347e+00 5.910675e+00 7.450000e+00
      vertex   1.000000e+01 6.175000e+00 7.450000e+00
    endloop
  endfacet
  facet normal 0.000000e+00 0.000000e+00 1.000000e+00
    outer loop
      vertex   1.000000e+01 6.175000e+00 7.450000e+00
      vertex   8.407347e+00 5.910675e+00 7.450000e+00
      vertex   8.748011e+00 5.630502e+00 7.450000e+00
    endloop
  endfacet
  facet normal 0.000000e+00 0.000000e+00 1.000000e+00
    outer loop
      vertex   1.000000e+01 6.175000e+00 7.450000e+00
      vertex   8.748011e+00 5.630502e+00 7.450000e+00
      vertex   9.136789e+00 5.422173e+00 7.450000e+00
    endloop
  endfacet
  facet normal 0.000000e+00 0.000000e+00 1.000000e+00
    outer loop
      vertex   9.657065e+00 6.220148e+00 7.450000e+00
      vertex   9.337501e+00 6.352516e+00 7.450000e+00
      vertex   8.407347e+00 5.910675e+00 7.450000e+00
    endloop
  endfacet
  facet normal 0.000000e+00 -0.000000e+00 1.000000e+00
    outer loop
      vertex   8.407347e+00 5.910675e+00 7.450000e+00
      vertex   9.337501e+00 6.352516e+00 7.450000e+00
      vertex   8.127887e+00 6.251925e+00 7.450000e+00
    endloop
  endfacet
  facet normal 0.000000e+00 0.000000e+00 1.000000e+00
    outer loop
      vertex   8.127887e+00 6.251925e+00 7.450000e+00
      vertex   9.337501e+00 6.352516e+00 7.450000e+00
      vertex   9.063084e+00 6.563084e+00 7.450000e+00
    endloop
  endfacet
  facet normal 0.000000e+00 -0.000000e+00 1.000000e+00
    outer loop
      vertex   8.127887e+00 6.251925e+00 7.450000e+00
      vertex   9.063084e+00 6.563084e+00 7.450000e+00
      vertex   7.920372e+00 6.641137e+00 7.450000e+00
    endloop
  endfacet
  facet normal -0.000000e+00 0.000000e+00 1.000000e+00
    outer loop
      vertex   7.920372e+00 6.641137e+00 7.450000e+00
      vertex   9.063084e+00 6.563084e+00 7.450000e+00
      vertex   8.852517e+00 6.837500e+00 7.450000e+00
    endloop
  endfacet
  facet normal 0.000000e+00 -0.000000e+00 1.000000e+00
    outer loop
      vertex   7.920372e+00 6.641137e+00 7.450000e+00
      vertex   8.852517e+00 6.837500e+00 7.450000e+00
      vertex   7.792776e+00 7.063355e+00 7.450000e+00
    endloop
  endfacet
  facet normal -0.000000e+00 0.000000e+00 1.000000e+00
    outer loop
      vertex   7.792776e+00 7.063355e+00 7.450000e+00
      vertex   8.852517e+00 6.837500e+00 7.450000e+00
      vertex   8.720149e+00 7.157065e+00 7.450000e+00
    endloop
  endfacet
  facet normal 0.000000e+00 -0.000000e+00 1.000000e+00
    outer loop
      vertex   7.792776e+00 7.063355e+00 7.450000e+00
      vertex   8.720149e+00 7.157065e+00 7.450000e+00
      vertex   7.750002e+00 7.502354e+00 7.450000e+00
    endloop
  endfacet
  facet normal 0.000000e+00 0.000000e+00 1.000000e+00
    outer loop
      vertex   7.750002e+00 7.502354e+00 7.450000e+00
      vertex   8.720149e+00 7.157065e+00 7.450000e+00
      vertex   8.675001e+00 7.500000e+00 7.450000e+00
    endloop
  endfacet
  facet normal -0.000000e+00 0.000000e+00 1.000000e+00
    outer loop
      vertex   7.750002e+00 7.502354e+00 7.450000e+00
      vertex   8.675001e+00 7.500000e+00 7.450000e+00
      vertex   8.720149e+00 7.842935e+00 7.450000e+00
    endloop
  endfacet
  facet normal 0.000000e+00 0.000000e+00 1.000000e+00
    outer loop
      vertex   7.750002e+00 7.502354e+00 7.450000e+00
      vertex   8.720149e+00 7.842935e+00 7.450000e+00
      vertex   7.793694e+00 7.941261e+00 7.450000e+00
    endloop
  endfacet
  facet normal -0.000000e+00 0.000000e+00 1.000000e+00
    outer loop
      vertex   7.793694e+00 7.941261e+00 7.450000e+00
      vertex   8.720149e+00 7.842935e+00 7.450000e+00
      vertex   8.852517e+00 8.162500e+00 7.450000e+00
    endloop
  endfacet
  facet normal 0.000000e+00 0.000000e+00 1.000000e+00
    outer loop
      vertex   7.793694e+00 7.941261e+00 7.450000e+00
      vertex   8.852517e+00 8.162500e+00 7.450000e+00
      vertex   7.922173e+00 8.363212e+00 7.450000e+00
    endloop
  endfacet
  facet normal -0.000000e+00 0.000000e+00 1.000000e+00
    outer loop
      vertex   7.922173e+00 8.363212e+00 7.450000e+00
      vertex   8.852517e+00 8.162500e+00 7.450000e+00
      vertex   9.063084e+00 8.436916e+00 7.450000e+00
    endloop
  endfacet
  facet normal 0.000000e+00 0.000000e+00 1.000000e+00
    outer loop
      vertex   7.922173e+00 8.363212e+00 7.450000e+00
      vertex   9.063084e+00 8.436916e+00 7.450000e+00
      vertex   8.130503e+00 8.751989e+00 7.450000e+00
    endloop
  endfacet
  facet normal 0.000000e+00 0.000000e+00 1.000000e+00
    outer loop
      vertex   8.130503e+00 8.751989e+00 7.450000e+00
      vertex   9.063084e+00 8.436916e+00 7.450000e+00
      vertex   9.337501e+00 8.647484e+00 7.450000e+00
    endloop
  endfacet
  facet normal -0.000000e+00 0.000000e+00 1.000000e+00
    outer loop
      vertex   8.130503e+00 8.751989e+00 7.450000e+00
      vertex   9.337501e+00 8.647484e+00 7.450000e+00
      vertex   8.410675e+00 9.092654e+00 7.450000e+00
    endloop
  endfacet
  facet normal 0.000000e+00 0.000000e+00 1.000000e+00
    outer loop
      vertex   8.410675e+00 9.092654e+00 7.450000e+00
      vertex   9.337501e+00 8.647484e+00 7.450000e+00
      vertex   9.657065e+00 8.779852e+00 7.450000e+00
    endloop
  endfacet
  facet normal 0.000000e+00 0.000000e+00 1.000000e+00
    outer loop
      vertex   8.410675e+00 9.092654e+00 7.450000e+00
      vertex   9.657065e+00 8.779852e+00 7.450000e+00
      vertex   1.000000e+01 8.825000e+00 7.450000e+00
    endloop
  endfacet
  facet normal 0.000000e+00 -0.000000e+00 1.000000e+00
    outer loop
      vertex   1.034294e+01 8.779852e+00 7.450000e+00
      vertex   1.044126e+01 9.706307e+00 7.450000e+00
      vertex   1.000000e+01 8.825000e+00 7.450000e+00
    endloop
  endfacet
  facet normal 0.000000e+00 -0.000000e+00 1.000000e+00
    outer loop
      vertex   1.000000e+01 8.825000e+00 7.450000e+00
      vertex   1.044126e+01 9.706307e+00 7.450000e+00
      vertex   9.141138e+00 9.579628e+00 7.450000e+00
    endloop
  endfacet
  facet normal 0.000000e+00 0.000000e+00 1.000000e+00
    outer loop
      vertex   1.000000e+01 8.825000e+00 7.450000e+00
      vertex   9.141138e+00 9.579628e+00 7.450000e+00
      vertex   8.751925e+00 9.372113e+00 7.450000e+00
    endloop
  endfacet
  facet normal -0.000000e+00 0.000000e+00 1.000000e+00
    outer loop
      vertex   1.034294e+01 8.779852e+00 7.450000e+00
      vertex   1.066250e+01 8.647484e+00 7.450000e+00
      vertex   1.044126e+01 9.706307e+00 7.450000e+00
    endloop
  endfacet
  facet normal 0.000000e+00 0.000000e+00 1.000000e+00
    outer loop
      vertex   1.044126e+01 9.706307e+00 7.450000e+00
      vertex   1.066250e+01 8.647484e+00 7.450000e+00
      vertex   1.093692e+01 8.436916e+00 7.450000e+00
    endloop
  endfacet
  facet normal 0.000000e+00 0.000000e+00 1.000000e+00
    outer loop
      vertex   1.044126e+01 9.706307e+00 7.450000e+00
      vertex   1.093692e+01 8.436916e+00 7.450000e+00
      vertex   3.544126e+01 4.706307e+00 7.450000e+00
    endloop
  endfacet
  facet normal 0.000000e+00 0.000000e+00 1.000000e+00
    outer loop
      vertex   3.544126e+01 4.706307e+00 7.450000e+00
      vertex   1.093692e+01 8.436916e+00 7.450000e+00
      vertex   1.114748e+01 8.162500e+00 7.450000e+00
    endloop
  endfacet
  facet normal 0.000000e+00 0.000000e+00 1.000000e+00
    outer loop
      vertex   3.544126e+01 4.706307e+00 7.450000e+00
      vertex   1.114748e+01 8.162500e+00 7.450000e+00
      vertex   1.127985e+01 7.842935e+00 7.450000e+00
    endloop
  endfacet
  facet normal 0.000000e+00 0.000000e+00 1.000000e+00
    outer loop
      vertex   3.372015e+01 2.157065e+00 7.450000e+00
      vertex   3.367500e+01 2.500000e+00 7.450000e+00
      vertex   9.558739e+00 5.293693e+00 7.450000e+00
    endloop
  endfacet
  facet normal 0.000000e+00 0.000000e+00 1.000000e+00
    outer loop
      vertex   9.558739e+00 5.293693e+00 7.450000e+00
      vertex   3.367500e+01 2.500000e+00 7.450000e+00
      vertex   3.372015e+01 2.842935e+00 7.450000e+00
    endloop
  endfacet
  facet normal 0.000000e+00 0.000000e+00 1.000000e+00
    outer loop
      vertex   9.558739e+00 5.293693e+00 7.450000e+00
      vertex   3.372015e+01 2.842935e+00 7.450000e+00
      vertex   3.385252e+01 3.162500e+00 7.450000e+00
    endloop
  endfacet
  facet normal 0.000000e+00 -0.000000e+00 1.000000e+00
    outer loop
      vertex   3.385252e+01 3.162500e+00 7.450000e+00
      vertex   3.406308e+01 3.436916e+00 7.450000e+00
      vertex   9.558739e+00 5.293693e+00 7.450000e+00
    endloop
  endfacet
  facet normal 0.000000e+00 0.000000e+00 1.000000e+00
    outer loop
      vertex   3.465707e+01 3.779852e+00 7.450000e+00
      vertex   3.500000e+01 3.825000e+00 7.450000e+00
      vertex   3.544126e+01 4.706307e+00 7.450000e+00
    endloop
  endfacet
  facet normal 0.000000e+00 0.000000e+00 1.000000e+00
    outer loop
      vertex   3.544126e+01 4.706307e+00 7.450000e+00
      vertex   3.500000e+01 3.825000e+00 7.450000e+00
      vertex   3.586321e+01 4.577827e+00 7.450000e+00
    endloop
  endfacet
  facet normal 0.000000e+00 0.000000e+00 1.000000e+00
    outer loop
      vertex   3.586321e+01 4.577827e+00 7.450000e+00
      vertex   3.500000e+01 3.825000e+00 7.450000e+00
      vertex   3.625199e+01 4.369498e+00 7.450000e+00
    endloop
  endfacet
  facet normal 0.000000e+00 0.000000e+00 1.000000e+00
    outer loop
      vertex   3.625199e+01 4.369498e+00 7.450000e+00
      vertex   3.500000e+01 3.825000e+00 7.450000e+00
      vertex   3.659265e+01 4.089325e+00 7.450000e+00
    endloop
  endfacet
  facet normal 0.000000e+00 0.000000e+00 1.000000e+00
    outer loop
      vertex   3.659265e+01 4.089325e+00 7.450000e+00
      vertex   3.500000e+01 3.825000e+00 7.450000e+00
      vertex   3.534294e+01 3.779852e+00 7.450000e+00
    endloop
  endfacet
  facet normal 0.000000e+00 0.000000e+00 1.000000e+00
    outer loop
      vertex   3.659265e+01 4.089325e+00 7.450000e+00
      vertex   3.534294e+01 3.779852e+00 7.450000e+00
      vertex   3.566250e+01 3.647484e+00 7.450000e+00
    endloop
  endfacet
  facet normal 0.000000e+00 0.000000e+00 1.000000e+00
    outer loop
      vertex   3.659265e+01 4.089325e+00 7.450000e+00
      vertex   3.566250e+01 3.647484e+00 7.450000e+00
      vertex   3.687211e+01 3.748075e+00 7.450000e+00
    endloop
  endfacet
  facet normal 0.000000e+00 0.000000e+00 1.000000e+00
    outer loop
      vertex   3.687211e+01 3.748075e+00 7.450000e+00
      vertex   3.566250e+01 3.647484e+00 7.450000e+00
      vertex   3.593692e+01 3.436916e+00 7.450000e+00
    endloop
  endfacet
  facet normal 0.000000e+00 0.000000e+00 1.000000e+00
    outer loop
      vertex   3.687211e+01 3.748075e+00 7.450000e+00
      vertex   3.593692e+01 3.436916e+00 7.450000e+00
      vertex   3.707963e+01 3.358863e+00 7.450000e+00
    endloop
  endfacet
  facet normal 0.000000e+00 0.000000e+00 1.000000e+00
    outer loop
      vertex   3.707963e+01 3.358863e+00 7.450000e+00
      vertex   3.593692e+01 3.436916e+00 7.450000e+00
      vertex   3.614748e+01 3.162500e+00 7.450000e+00
    endloop
  endfacet
  facet normal 0.000000e+00 0.000000e+00 1.000000e+00
    outer loop
      vertex   3.707963e+01 3.358863e+00 7.450000e+00
      vertex   3.614748e+01 3.162500e+00 7.450000e+00
      vertex   3.720723e+01 2.936645e+00 7.450000e+00
    endloop
  endfacet
  facet normal 0.000000e+00 0.000000e+00 1.000000e+00
    outer loop
      vertex   3.720723e+01 2.936645e+00 7.450000e+00
      vertex   3.614748e+01 3.162500e+00 7.450000e+00
      vertex   3.627985e+01 2.842935e+00 7.450000e+00
    endloop
  endfacet
  facet normal 0.000000e+00 0.000000e+00 1.000000e+00
    outer loop
      vertex   3.720723e+01 2.936645e+00 7.450000e+00
      vertex   3.627985e+01 2.842935e+00 7.450000e+00
      vertex   3.725000e+01 2.497646e+00 7.450000e+00
    endloop
  endfacet
  facet normal 0.000000e+00 0.000000e+00 1.000000e+00
    outer loop
      vertex   3.725000e+01 2.497646e+00 7.450000e+00
      vertex   3.627985e+01 2.842935e+00 7.450000e+00
      vertex   3.632500e+01 2.500000e+00 7.450000e+00
    endloop
  endfacet
  facet normal 0.000000e+00 0.000000e+00 1.000000e+00
    outer loop
      vertex   3.725000e+01 2.497646e+00 7.450000e+00
      vertex   3.632500e+01 2.500000e+00 7.450000e+00
      vertex   3.627985e+01 2.157065e+00 7.450000e+00
    endloop
  endfacet
  facet normal 0.000000e+00 0.000000e+00 1.000000e+00
    outer loop
      vertex   3.725000e+01 2.497646e+00 7.450000e+00
      vertex   3.627985e+01 2.157065e+00 7.450000e+00
      vertex   3.720631e+01 2.058739e+00 7.450000e+00
    endloop
  endfacet
  facet normal 0.000000e+00 0.000000e+00 1.000000e+00
    outer loop
      vertex   3.720631e+01 2.058739e+00 7.450000e+00
      vertex   3.627985e+01 2.157065e+00 7.450000e+00
      vertex   3.614748e+01 1.837500e+00 7.450000e+00
    endloop
  endfacet
  facet normal 0.000000e+00 0.000000e+00 1.000000e+00
    outer loop
      vertex   3.720631e+01 2.058739e+00 7.450000e+00
      vertex   3.614748e+01 1.837500e+00 7.450000e+00
      vertex   3.707783e+01 1.636788e+00 7.450000e+00
    endloop
  endfacet
  facet normal 0.000000e+00 0.000000e+00 1.000000e+00
    outer loop
      vertex   3.707783e+01 1.636788e+00 7.450000e+00
      vertex   3.614748e+01 1.837500e+00 7.450000e+00
      vertex   3.593692e+01 1.563084e+00 7.450000e+00
    endloop
  endfacet
  facet normal 0.000000e+00 0.000000e+00 1.000000e+00
    outer loop
      vertex   3.707783e+01 1.636788e+00 7.450000e+00
      vertex   3.593692e+01 1.563084e+00 7.450000e+00
      vertex   3.686950e+01 1.248011e+00 7.450000e+00
    endloop
  endfacet
  facet normal 0.000000e+00 0.000000e+00 1.000000e+00
    outer loop
      vertex   3.686950e+01 1.248011e+00 7.450000e+00
      vertex   3.593692e+01 1.563084e+00 7.450000e+00
      vertex   3.566250e+01 1.352516e+00 7.450000e+00
    endloop
  endfacet
  facet normal 0.000000e+00 0.000000e+00 1.000000e+00
    outer loop
      vertex   3.686950e+01 1.248011e+00 7.450000e+00
      vertex   3.566250e+01 1.352516e+00 7.450000e+00
      vertex   3.658933e+01 9.073464e-01 7.450000e+00
    endloop
  endfacet
  facet normal 0.000000e+00 0.000000e+00 1.000000e+00
    outer loop
      vertex   3.658933e+01 9.073464e-01 7.450000e+00
      vertex   3.566250e+01 1.352516e+00 7.450000e+00
      vertex   3.534294e+01 1.220148e+00 7.450000e+00
    endloop
  endfacet
  facet normal 0.000000e+00 0.000000e+00 1.000000e+00
    outer loop
      vertex   3.658933e+01 9.073464e-01 7.450000e+00
      vertex   3.534294e+01 1.220148e+00 7.450000e+00
      vertex   3.500000e+01 1.175000e+00 7.450000e+00
    endloop
  endfacet
  facet normal 0.000000e+00 0.000000e+00 1.000000e+00
    outer loop
      vertex   3.465707e+01 1.220148e+00 7.450000e+00
      vertex   3.455874e+01 2.936935e-01 7.450000e+00
      vertex   3.500000e+01 1.175000e+00 7.450000e+00
    endloop
  endfacet
  facet normal 0.000000e+00 0.000000e+00 1.000000e+00
    outer loop
      vertex   3.500000e+01 1.175000e+00 7.450000e+00
      vertex   3.455874e+01 2.936935e-01 7.450000e+00
      vertex   3.585886e+01 4.203715e-01 7.450000e+00
    endloop
  endfacet
  facet normal 0.000000e+00 0.000000e+00 1.000000e+00
    outer loop
      vertex   3.500000e+01 1.175000e+00 7.450000e+00
      vertex   3.585886e+01 4.203715e-01 7.450000e+00
      vertex   3.624808e+01 6.278868e-01 7.450000e+00
    endloop
  endfacet
  facet normal 0.000000e+00 0.000000e+00 1.000000e+00
    outer loop
      vertex   3.465707e+01 1.220148e+00 7.450000e+00
      vertex   3.433750e+01 1.352516e+00 7.450000e+00
      vertex   3.455874e+01 2.936935e-01 7.450000e+00
    endloop
  endfacet
  facet normal 0.000000e+00 0.000000e+00 1.000000e+00
    outer loop
      vertex   3.455874e+01 2.936935e-01 7.450000e+00
      vertex   3.433750e+01 1.352516e+00 7.450000e+00
      vertex   3.406308e+01 1.563084e+00 7.450000e+00
    endloop
  endfacet
  facet normal 0.000000e+00 0.000000e+00 1.000000e+00
    outer loop
      vertex   3.455874e+01 2.936935e-01 7.450000e+00
      vertex   3.406308e+01 1.563084e+00 7.450000e+00
      vertex   9.558739e+00 5.293693e+00 7.450000e+00
    endloop
  endfacet
  facet normal 0.000000e+00 0.000000e+00 1.000000e+00
    outer loop
      vertex   9.558739e+00 5.293693e+00 7.450000e+00
      vertex   3.406308e+01 1.563084e+00 7.450000e+00
      vertex   3.385252e+01 1.837500e+00 7.450000e+00
    endloop
  endfacet
  facet normal 0.000000e+00 0.000000e+00 1.000000e+00
    outer loop
      vertex   9.558739e+00 5.293693e+00 7.450000e+00
      vertex   3.385252e+01 1.837500e+00 7.450000e+00
      vertex   3.372015e+01 2.157065e+00 7.450000e+00
    endloop
  endfacet
  facet normal 0.000000e+00 -0.000000e+00 1.000000e+00
    outer loop
      vertex   3.499765e+01 2.500012e-01 7.450000e+00
      vertex   3.543665e+01 2.927752e-01 7.450000e+00
      vertex   3.455874e+01 2.936935e-01 7.450000e+00
    endloop
  endfacet
  facet normal -0.000000e+00 0.000000e+00 1.000000e+00
    outer loop
      vertex   3.455874e+01 2.936935e-01 7.450000e+00
      vertex   3.543665e+01 2.927752e-01 7.450000e+00
      vertex   3.585886e+01 4.203715e-01 7.450000e+00
    endloop
  endfacet
  facet normal 0.000000e+00 -0.000000e+00 1.000000e+00
    outer loop
      vertex   3.624808e+01 6.278868e-01 7.450000e+00
      vertex   3.658933e+01 9.073464e-01 7.450000e+00
      vertex   3.500000e+01 1.175000e+00 7.450000e+00
    endloop
  endfacet
  facet normal 0.000000e+00 0.000000e+00 1.000000e+00
    outer loop
      vertex   1.000235e+01 9.749999e+00 7.450000e+00
      vertex   9.563356e+00 9.707225e+00 7.450000e+00
      vertex   1.044126e+01 9.706307e+00 7.450000e+00
    endloop
  endfacet
  facet normal 0.000000e+00 0.000000e+00 1.000000e+00
    outer loop
      vertex   1.044126e+01 9.706307e+00 7.450000e+00
      vertex   9.563356e+00 9.707225e+00 7.450000e+00
      vertex   9.141138e+00 9.579628e+00 7.450000e+00
    endloop
  endfacet
  facet normal 0.000000e+00 0.000000e+00 1.000000e+00
    outer loop
      vertex   8.751925e+00 9.372113e+00 7.450000e+00
      vertex   8.410675e+00 9.092654e+00 7.450000e+00
      vertex   1.000000e+01 8.825000e+00 7.450000e+00
    endloop
  endfacet
  facet normal -0.000000e+00 0.000000e+00 1.000000e+00
    outer loop
      vertex   9.136789e+00 5.422173e+00 7.450000e+00
      vertex   9.558739e+00 5.293693e+00 7.450000e+00
      vertex   1.000000e+01 6.175000e+00 7.450000e+00
    endloop
  endfacet
endsolid
